0
SECTION
2
HEADER
9
$INSUNITS
70
4
0
ENDSEC
0
SECTION
2
TABLES
0
TABLE
2
LAYER
70
1
0
LAYER
2
CUT
70
0
62
1
6
CONTINUOUS
0
ENDTAB
0
ENDSEC
0
SECTION
2
ENTITIES
0
LINE
8
CUT
10
3
20
0
30
0
11
123
21
0
31
0
0
ARC
8
CUT
10
123
20
3
30
0
40
3
50
270
51
360
0
LINE
8
CUT
10
126
20
3
30
0
11
126
21
83
31
0
0
ARC
8
CUT
10
123
20
83
30
0
40
3
50
0
51
90
0
LINE
8
CUT
10
123
20
86
30
0
11
3
21
86
31
0
0
ARC
8
CUT
10
3
20
83
30
0
40
3
50
90
51
180
0
LINE
8
CUT
10
0
20
83
30
0
11
0
21
3
31
0
0
ARC
8
CUT
10
3
20
3
30
0
40
3
50
180
51
270
0
LINE
8
CUT
10
7.26
20
0
30
0
11
19.14
21
0
31
0
0
LINE
8
CUT
10
19.14
20
0
30
0
11
19.14
21
3.12
31
0
0
LINE
8
CUT
10
19.14
20
3.12
30
0
11
7.26
21
3.12
31
0
0
LINE
8
CUT
10
7.26
20
3.12
30
0
11
7.26
21
0
31
0
0
LINE
8
CUT
10
27.18
20
0
30
0
11
39.06
21
0
31
0
0
LINE
8
CUT
10
39.06
20
0
30
0
11
39.06
21
3.12
31
0
0
LINE
8
CUT
10
39.06
20
3.12
30
0
11
27.18
21
3.12
31
0
0
LINE
8
CUT
10
27.18
20
3.12
30
0
11
27.18
21
0
31
0
0
LINE
8
CUT
10
47.1
20
0
30
0
11
58.98
21
0
31
0
0
LINE
8
CUT
10
58.98
20
0
30
0
11
58.98
21
3.12
31
0
0
LINE
8
CUT
10
58.98
20
3.12
30
0
11
47.1
21
3.12
31
0
0
LINE
8
CUT
10
47.1
20
3.12
30
0
11
47.1
21
0
31
0
0
LINE
8
CUT
10
67.02
20
0
30
0
11
78.9
21
0
31
0
0
LINE
8
CUT
10
78.9
20
0
30
0
11
78.9
21
3.12
31
0
0
LINE
8
CUT
10
78.9
20
3.12
30
0
11
67.02
21
3.12
31
0
0
LINE
8
CUT
10
67.02
20
3.12
30
0
11
67.02
21
0
31
0
0
LINE
8
CUT
10
86.94
20
0
30
0
11
98.82
21
0
31
0
0
LINE
8
CUT
10
98.82
20
0
30
0
11
98.82
21
3.12
31
0
0
LINE
8
CUT
10
98.82
20
3.12
30
0
11
86.94
21
3.12
31
0
0
LINE
8
CUT
10
86.94
20
3.12
30
0
11
86.94
21
0
31
0
0
LINE
8
CUT
10
106.86
20
0
30
0
11
118.74
21
0
31
0
0
LINE
8
CUT
10
118.74
20
0
30
0
11
118.74
21
3.12
31
0
0
LINE
8
CUT
10
118.74
20
3.12
30
0
11
106.86
21
3.12
31
0
0
LINE
8
CUT
10
106.86
20
3.12
30
0
11
106.86
21
0
31
0
0
LINE
8
CUT
10
7.26
20
82.88
30
0
11
19.14
21
82.88
31
0
0
LINE
8
CUT
10
19.14
20
82.88
30
0
11
19.14
21
86
31
0
0
LINE
8
CUT
10
19.14
20
86
30
0
11
7.26
21
86
31
0
0
LINE
8
CUT
10
7.26
20
86
30
0
11
7.26
21
82.88
31
0
0
LINE
8
CUT
10
27.18
20
82.88
30
0
11
39.06
21
82.88
31
0
0
LINE
8
CUT
10
39.06
20
82.88
30
0
11
39.06
21
86
31
0
0
LINE
8
CUT
10
39.06
20
86
30
0
11
27.18
21
86
31
0
0
LINE
8
CUT
10
27.18
20
86
30
0
11
27.18
21
82.88
31
0
0
LINE
8
CUT
10
47.1
20
82.88
30
0
11
58.98
21
82.88
31
0
0
LINE
8
CUT
10
58.98
20
82.88
30
0
11
58.98
21
86
31
0
0
LINE
8
CUT
10
58.98
20
86
30
0
11
47.1
21
86
31
0
0
LINE
8
CUT
10
47.1
20
86
30
0
11
47.1
21
82.88
31
0
0
LINE
8
CUT
10
67.02
20
82.88
30
0
11
78.9
21
82.88
31
0
0
LINE
8
CUT
10
78.9
20
82.88
30
0
11
78.9
21
86
31
0
0
LINE
8
CUT
10
78.9
20
86
30
0
11
67.02
21
86
31
0
0
LINE
8
CUT
10
67.02
20
86
30
0
11
67.02
21
82.88
31
0
0
LINE
8
CUT
10
86.94
20
82.88
30
0
11
98.82
21
82.88
31
0
0
LINE
8
CUT
10
98.82
20
82.88
30
0
11
98.82
21
86
31
0
0
LINE
8
CUT
10
98.82
20
86
30
0
11
86.94
21
86
31
0
0
LINE
8
CUT
10
86.94
20
86
30
0
11
86.94
21
82.88
31
0
0
LINE
8
CUT
10
106.86
20
82.88
30
0
11
118.74
21
82.88
31
0
0
LINE
8
CUT
10
118.74
20
82.88
30
0
11
118.74
21
86
31
0
0
LINE
8
CUT
10
118.74
20
86
30
0
11
106.86
21
86
31
0
0
LINE
8
CUT
10
106.86
20
86
30
0
11
106.86
21
82.88
31
0
0
LINE
8
CUT
10
0
20
10.26
30
0
11
3.12
21
10.26
31
0
0
LINE
8
CUT
10
3.12
20
10.26
30
0
11
3.12
21
22.14
31
0
0
LINE
8
CUT
10
3.12
20
22.14
30
0
11
0
21
22.14
31
0
0
LINE
8
CUT
10
0
20
22.14
30
0
11
0
21
10.26
31
0
0
LINE
8
CUT
10
0
20
28.1267
30
0
11
3.12
21
28.1267
31
0
0
LINE
8
CUT
10
3.12
20
28.1267
30
0
11
3.12
21
40.0067
31
0
0
LINE
8
CUT
10
3.12
20
40.0067
30
0
11
0
21
40.0067
31
0
0
LINE
8
CUT
10
0
20
40.0067
30
0
11
0
21
28.1267
31
0
0
LINE
8
CUT
10
0
20
45.9933
30
0
11
3.12
21
45.9933
31
0
0
LINE
8
CUT
10
3.12
20
45.9933
30
0
11
3.12
21
57.8733
31
0
0
LINE
8
CUT
10
3.12
20
57.8733
30
0
11
0
21
57.8733
31
0
0
LINE
8
CUT
10
0
20
57.8733
30
0
11
0
21
45.9933
31
0
0
LINE
8
CUT
10
0
20
63.86
30
0
11
3.12
21
63.86
31
0
0
LINE
8
CUT
10
3.12
20
63.86
30
0
11
3.12
21
75.74
31
0
0
LINE
8
CUT
10
3.12
20
75.74
30
0
11
0
21
75.74
31
0
0
LINE
8
CUT
10
0
20
75.74
30
0
11
0
21
63.86
31
0
0
LINE
8
CUT
10
122.88
20
10.26
30
0
11
126
21
10.26
31
0
0
LINE
8
CUT
10
126
20
10.26
30
0
11
126
21
22.14
31
0
0
LINE
8
CUT
10
126
20
22.14
30
0
11
122.88
21
22.14
31
0
0
LINE
8
CUT
10
122.88
20
22.14
30
0
11
122.88
21
10.26
31
0
0
LINE
8
CUT
10
122.88
20
28.1267
30
0
11
126
21
28.1267
31
0
0
LINE
8
CUT
10
126
20
28.1267
30
0
11
126
21
40.0067
31
0
0
LINE
8
CUT
10
126
20
40.0067
30
0
11
122.88
21
40.0067
31
0
0
LINE
8
CUT
10
122.88
20
40.0067
30
0
11
122.88
21
28.1267
31
0
0
LINE
8
CUT
10
122.88
20
45.9933
30
0
11
126
21
45.9933
31
0
0
LINE
8
CUT
10
126
20
45.9933
30
0
11
126
21
57.8733
31
0
0
LINE
8
CUT
10
126
20
57.8733
30
0
11
122.88
21
57.8733
31
0
0
LINE
8
CUT
10
122.88
20
57.8733
30
0
11
122.88
21
45.9933
31
0
0
LINE
8
CUT
10
122.88
20
63.86
30
0
11
126
21
63.86
31
0
0
LINE
8
CUT
10
126
20
63.86
30
0
11
126
21
75.74
31
0
0
LINE
8
CUT
10
126
20
75.74
30
0
11
122.88
21
75.74
31
0
0
LINE
8
CUT
10
122.88
20
75.74
30
0
11
122.88
21
63.86
31
0
0
CIRCLE
8
CUT
10
10
20
10
30
0
40
2
0
CIRCLE
8
CUT
10
116
20
10
30
0
40
2
0
CIRCLE
8
CUT
10
10
20
76
30
0
40
2
0
CIRCLE
8
CUT
10
116
20
76
30
0
40
2
0
LINE
8
CUT
10
0
20
101
30
0
11
7.2
21
101
31
0
0
LINE
8
CUT
10
7.2
20
101
30
0
11
7.2
21
98.06
31
0
0
LINE
8
CUT
10
7.2
20
98.06
30
0
11
19.2
21
98.06
31
0
0
LINE
8
CUT
10
19.2
20
98.06
30
0
11
19.2
21
101
31
0
0
LINE
8
CUT
10
19.2
20
101
30
0
11
27.12
21
101
31
0
0
LINE
8
CUT
10
27.12
20
101
30
0
11
27.12
21
98.06
31
0
0
LINE
8
CUT
10
27.12
20
98.06
30
0
11
39.12
21
98.06
31
0
0
LINE
8
CUT
10
39.12
20
98.06
30
0
11
39.12
21
101
31
0
0
LINE
8
CUT
10
39.12
20
101
30
0
11
47.04
21
101
31
0
0
LINE
8
CUT
10
47.04
20
101
30
0
11
47.04
21
98.06
31
0
0
LINE
8
CUT
10
47.04
20
98.06
30
0
11
59.04
21
98.06
31
0
0
LINE
8
CUT
10
59.04
20
98.06
30
0
11
59.04
21
101
31
0
0
LINE
8
CUT
10
59.04
20
101
30
0
11
66.96
21
101
31
0
0
LINE
8
CUT
10
66.96
20
101
30
0
11
66.96
21
98.06
31
0
0
LINE
8
CUT
10
66.96
20
98.06
30
0
11
78.96
21
98.06
31
0
0
LINE
8
CUT
10
78.96
20
98.06
30
0
11
78.96
21
101
31
0
0
LINE
8
CUT
10
78.96
20
101
30
0
11
86.88
21
101
31
0
0
LINE
8
CUT
10
86.88
20
101
30
0
11
86.88
21
98.06
31
0
0
LINE
8
CUT
10
86.88
20
98.06
30
0
11
98.88
21
98.06
31
0
0
LINE
8
CUT
10
98.88
20
98.06
30
0
11
98.88
21
101
31
0
0
LINE
8
CUT
10
98.88
20
101
30
0
11
106.8
21
101
31
0
0
LINE
8
CUT
10
106.8
20
101
30
0
11
106.8
21
98.06
31
0
0
LINE
8
CUT
10
106.8
20
98.06
30
0
11
118.8
21
98.06
31
0
0
LINE
8
CUT
10
118.8
20
98.06
30
0
11
118.8
21
101
31
0
0
LINE
8
CUT
10
118.8
20
101
30
0
11
126
21
101
31
0
0
LINE
8
CUT
10
126
20
101
30
0
11
126
21
151
31
0
0
LINE
8
CUT
10
126
20
151
30
0
11
0
21
151
31
0
0
LINE
8
CUT
10
0
20
151
30
0
11
0
21
101
31
0
0
LINE
8
CUT
10
0
20
110.06
30
0
11
3.12
21
110.06
31
0
0
LINE
8
CUT
10
3.12
20
110.06
30
0
11
3.12
21
121.94
31
0
0
LINE
8
CUT
10
3.12
20
121.94
30
0
11
0
21
121.94
31
0
0
LINE
8
CUT
10
0
20
121.94
30
0
11
0
21
110.06
31
0
0
LINE
8
CUT
10
122.88
20
110.06
30
0
11
126
21
110.06
31
0
0
LINE
8
CUT
10
126
20
110.06
30
0
11
126
21
121.94
31
0
0
LINE
8
CUT
10
126
20
121.94
30
0
11
122.88
21
121.94
31
0
0
LINE
8
CUT
10
122.88
20
121.94
30
0
11
122.88
21
110.06
31
0
0
LINE
8
CUT
10
0
20
130.06
30
0
11
3.12
21
130.06
31
0
0
LINE
8
CUT
10
3.12
20
130.06
30
0
11
3.12
21
141.94
31
0
0
LINE
8
CUT
10
3.12
20
141.94
30
0
11
0
21
141.94
31
0
0
LINE
8
CUT
10
0
20
141.94
30
0
11
0
21
130.06
31
0
0
LINE
8
CUT
10
122.88
20
130.06
30
0
11
126
21
130.06
31
0
0
LINE
8
CUT
10
126
20
130.06
30
0
11
126
21
141.94
31
0
0
LINE
8
CUT
10
126
20
141.94
30
0
11
122.88
21
141.94
31
0
0
LINE
8
CUT
10
122.88
20
141.94
30
0
11
122.88
21
130.06
31
0
0
CIRCLE
8
CUT
10
10
20
141
30
0
40
2
0
CIRCLE
8
CUT
10
116
20
141
30
0
40
2
0
LINE
8
CUT
10
138
20
101
30
0
11
145.2
21
101
31
0
0
LINE
8
CUT
10
145.2
20
101
30
0
11
145.2
21
98.06
31
0
0
LINE
8
CUT
10
145.2
20
98.06
30
0
11
157.2
21
98.06
31
0
0
LINE
8
CUT
10
157.2
20
98.06
30
0
11
157.2
21
101
31
0
0
LINE
8
CUT
10
157.2
20
101
30
0
11
165.12
21
101
31
0
0
LINE
8
CUT
10
165.12
20
101
30
0
11
165.12
21
98.06
31
0
0
LINE
8
CUT
10
165.12
20
98.06
30
0
11
177.12
21
98.06
31
0
0
LINE
8
CUT
10
177.12
20
98.06
30
0
11
177.12
21
101
31
0
0
LINE
8
CUT
10
177.12
20
101
30
0
11
185.04
21
101
31
0
0
LINE
8
CUT
10
185.04
20
101
30
0
11
185.04
21
98.06
31
0
0
LINE
8
CUT
10
185.04
20
98.06
30
0
11
197.04
21
98.06
31
0
0
LINE
8
CUT
10
197.04
20
98.06
30
0
11
197.04
21
101
31
0
0
LINE
8
CUT
10
197.04
20
101
30
0
11
204.96
21
101
31
0
0
LINE
8
CUT
10
204.96
20
101
30
0
11
204.96
21
98.06
31
0
0
LINE
8
CUT
10
204.96
20
98.06
30
0
11
216.96
21
98.06
31
0
0
LINE
8
CUT
10
216.96
20
98.06
30
0
11
216.96
21
101
31
0
0
LINE
8
CUT
10
216.96
20
101
30
0
11
224.88
21
101
31
0
0
LINE
8
CUT
10
224.88
20
101
30
0
11
224.88
21
98.06
31
0
0
LINE
8
CUT
10
224.88
20
98.06
30
0
11
236.88
21
98.06
31
0
0
LINE
8
CUT
10
236.88
20
98.06
30
0
11
236.88
21
101
31
0
0
LINE
8
CUT
10
236.88
20
101
30
0
11
244.8
21
101
31
0
0
LINE
8
CUT
10
244.8
20
101
30
0
11
244.8
21
98.06
31
0
0
LINE
8
CUT
10
244.8
20
98.06
30
0
11
256.8
21
98.06
31
0
0
LINE
8
CUT
10
256.8
20
98.06
30
0
11
256.8
21
101
31
0
0
LINE
8
CUT
10
256.8
20
101
30
0
11
264
21
101
31
0
0
LINE
8
CUT
10
264
20
101
30
0
11
264
21
151
31
0
0
LINE
8
CUT
10
264
20
151
30
0
11
138
21
151
31
0
0
LINE
8
CUT
10
138
20
151
30
0
11
138
21
101
31
0
0
LINE
8
CUT
10
138
20
110.06
30
0
11
141.12
21
110.06
31
0
0
LINE
8
CUT
10
141.12
20
110.06
30
0
11
141.12
21
121.94
31
0
0
LINE
8
CUT
10
141.12
20
121.94
30
0
11
138
21
121.94
31
0
0
LINE
8
CUT
10
138
20
121.94
30
0
11
138
21
110.06
31
0
0
LINE
8
CUT
10
260.88
20
110.06
30
0
11
264
21
110.06
31
0
0
LINE
8
CUT
10
264
20
110.06
30
0
11
264
21
121.94
31
0
0
LINE
8
CUT
10
264
20
121.94
30
0
11
260.88
21
121.94
31
0
0
LINE
8
CUT
10
260.88
20
121.94
30
0
11
260.88
21
110.06
31
0
0
LINE
8
CUT
10
138
20
130.06
30
0
11
141.12
21
130.06
31
0
0
LINE
8
CUT
10
141.12
20
130.06
30
0
11
141.12
21
141.94
31
0
0
LINE
8
CUT
10
141.12
20
141.94
30
0
11
138
21
141.94
31
0
0
LINE
8
CUT
10
138
20
141.94
30
0
11
138
21
130.06
31
0
0
LINE
8
CUT
10
260.88
20
130.06
30
0
11
264
21
130.06
31
0
0
LINE
8
CUT
10
264
20
130.06
30
0
11
264
21
141.94
31
0
0
LINE
8
CUT
10
264
20
141.94
30
0
11
260.88
21
141.94
31
0
0
LINE
8
CUT
10
260.88
20
141.94
30
0
11
260.88
21
130.06
31
0
0
CIRCLE
8
CUT
10
148
20
141
30
0
40
2
0
CIRCLE
8
CUT
10
254
20
141
30
0
40
2
0
LINE
8
CUT
10
0
20
166
30
0
11
7.2
21
166
31
0
0
LINE
8
CUT
10
7.2
20
166
30
0
11
7.2
21
163.06
31
0
0
LINE
8
CUT
10
7.2
20
163.06
30
0
11
19.2
21
163.06
31
0
0
LINE
8
CUT
10
19.2
20
163.06
30
0
11
19.2
21
166
31
0
0
LINE
8
CUT
10
19.2
20
166
30
0
11
25.0667
21
166
31
0
0
LINE
8
CUT
10
25.0667
20
166
30
0
11
25.0667
21
163.06
31
0
0
LINE
8
CUT
10
25.0667
20
163.06
30
0
11
37.0667
21
163.06
31
0
0
LINE
8
CUT
10
37.0667
20
163.06
30
0
11
37.0667
21
166
31
0
0
LINE
8
CUT
10
37.0667
20
166
30
0
11
42.9333
21
166
31
0
0
LINE
8
CUT
10
42.9333
20
166
30
0
11
42.9333
21
163.06
31
0
0
LINE
8
CUT
10
42.9333
20
163.06
30
0
11
54.9333
21
163.06
31
0
0
LINE
8
CUT
10
54.9333
20
163.06
30
0
11
54.9333
21
166
31
0
0
LINE
8
CUT
10
54.9333
20
166
30
0
11
60.8
21
166
31
0
0
LINE
8
CUT
10
60.8
20
166
30
0
11
60.8
21
163.06
31
0
0
LINE
8
CUT
10
60.8
20
163.06
30
0
11
72.8
21
163.06
31
0
0
LINE
8
CUT
10
72.8
20
163.06
30
0
11
72.8
21
166
31
0
0
LINE
8
CUT
10
72.8
20
166
30
0
11
80
21
166
31
0
0
LINE
8
CUT
10
80
20
166
30
0
11
80
21
175
31
0
0
LINE
8
CUT
10
80
20
175
30
0
11
82.94
21
175
31
0
0
LINE
8
CUT
10
82.94
20
175
30
0
11
82.94
21
187
31
0
0
LINE
8
CUT
10
82.94
20
187
30
0
11
80
21
187
31
0
0
LINE
8
CUT
10
80
20
187
30
0
11
80
21
195
31
0
0
LINE
8
CUT
10
80
20
195
30
0
11
82.94
21
195
31
0
0
LINE
8
CUT
10
82.94
20
195
30
0
11
82.94
21
207
31
0
0
LINE
8
CUT
10
82.94
20
207
30
0
11
80
21
207
31
0
0
LINE
8
CUT
10
80
20
207
30
0
11
80
21
216
31
0
0
LINE
8
CUT
10
80
20
216
30
0
11
0
21
216
31
0
0
LINE
8
CUT
10
0
20
216
30
0
11
0
21
207
31
0
0
LINE
8
CUT
10
0
20
207
30
0
11
-2.94
21
207
31
0
0
LINE
8
CUT
10
-2.94
20
207
30
0
11
-2.94
21
195
31
0
0
LINE
8
CUT
10
-2.94
20
195
30
0
11
0
21
195
31
0
0
LINE
8
CUT
10
0
20
195
30
0
11
0
21
187
31
0
0
LINE
8
CUT
10
0
20
187
30
0
11
-2.94
21
187
31
0
0
LINE
8
CUT
10
-2.94
20
187
30
0
11
-2.94
21
175
31
0
0
LINE
8
CUT
10
-2.94
20
175
30
0
11
0
21
175
31
0
0
LINE
8
CUT
10
0
20
175
30
0
11
0
21
166
31
0
0
CIRCLE
8
CUT
10
10
20
206
30
0
40
2
0
CIRCLE
8
CUT
10
70
20
206
30
0
40
2
0
LINE
8
CUT
10
97.88
20
166
30
0
11
105.08
21
166
31
0
0
LINE
8
CUT
10
105.08
20
166
30
0
11
105.08
21
163.06
31
0
0
LINE
8
CUT
10
105.08
20
163.06
30
0
11
117.08
21
163.06
31
0
0
LINE
8
CUT
10
117.08
20
163.06
30
0
11
117.08
21
166
31
0
0
LINE
8
CUT
10
117.08
20
166
30
0
11
122.9467
21
166
31
0
0
LINE
8
CUT
10
122.9467
20
166
30
0
11
122.9467
21
163.06
31
0
0
LINE
8
CUT
10
122.9467
20
163.06
30
0
11
134.9467
21
163.06
31
0
0
LINE
8
CUT
10
134.9467
20
163.06
30
0
11
134.9467
21
166
31
0
0
LINE
8
CUT
10
134.9467
20
166
30
0
11
140.8133
21
166
31
0
0
LINE
8
CUT
10
140.8133
20
166
30
0
11
140.8133
21
163.06
31
0
0
LINE
8
CUT
10
140.8133
20
163.06
30
0
11
152.8133
21
163.06
31
0
0
LINE
8
CUT
10
152.8133
20
163.06
30
0
11
152.8133
21
166
31
0
0
LINE
8
CUT
10
152.8133
20
166
30
0
11
158.68
21
166
31
0
0
LINE
8
CUT
10
158.68
20
166
30
0
11
158.68
21
163.06
31
0
0
LINE
8
CUT
10
158.68
20
163.06
30
0
11
170.68
21
163.06
31
0
0
LINE
8
CUT
10
170.68
20
163.06
30
0
11
170.68
21
166
31
0
0
LINE
8
CUT
10
170.68
20
166
30
0
11
177.88
21
166
31
0
0
LINE
8
CUT
10
177.88
20
166
30
0
11
177.88
21
175
31
0
0
LINE
8
CUT
10
177.88
20
175
30
0
11
180.82
21
175
31
0
0
LINE
8
CUT
10
180.82
20
175
30
0
11
180.82
21
187
31
0
0
LINE
8
CUT
10
180.82
20
187
30
0
11
177.88
21
187
31
0
0
LINE
8
CUT
10
177.88
20
187
30
0
11
177.88
21
195
31
0
0
LINE
8
CUT
10
177.88
20
195
30
0
11
180.82
21
195
31
0
0
LINE
8
CUT
10
180.82
20
195
30
0
11
180.82
21
207
31
0
0
LINE
8
CUT
10
180.82
20
207
30
0
11
177.88
21
207
31
0
0
LINE
8
CUT
10
177.88
20
207
30
0
11
177.88
21
216
31
0
0
LINE
8
CUT
10
177.88
20
216
30
0
11
97.88
21
216
31
0
0
LINE
8
CUT
10
97.88
20
216
30
0
11
97.88
21
207
31
0
0
LINE
8
CUT
10
97.88
20
207
30
0
11
94.94
21
207
31
0
0
LINE
8
CUT
10
94.94
20
207
30
0
11
94.94
21
195
31
0
0
LINE
8
CUT
10
94.94
20
195
30
0
11
97.88
21
195
31
0
0
LINE
8
CUT
10
97.88
20
195
30
0
11
97.88
21
187
31
0
0
LINE
8
CUT
10
97.88
20
187
30
0
11
94.94
21
187
31
0
0
LINE
8
CUT
10
94.94
20
187
30
0
11
94.94
21
175
31
0
0
LINE
8
CUT
10
94.94
20
175
30
0
11
97.88
21
175
31
0
0
LINE
8
CUT
10
97.88
20
175
30
0
11
97.88
21
166
31
0
0
CIRCLE
8
CUT
10
107.88
20
206
30
0
40
2
0
CIRCLE
8
CUT
10
167.88
20
206
30
0
40
2
0
LINE
8
CUT
10
198.76
20
166
30
0
11
318.76
21
166
31
0
0
ARC
8
CUT
10
318.76
20
169
30
0
40
3
50
270
51
360
0
LINE
8
CUT
10
321.76
20
169
30
0
11
321.76
21
249
31
0
0
ARC
8
CUT
10
318.76
20
249
30
0
40
3
50
0
51
90
0
LINE
8
CUT
10
318.76
20
252
30
0
11
198.76
21
252
31
0
0
ARC
8
CUT
10
198.76
20
249
30
0
40
3
50
90
51
180
0
LINE
8
CUT
10
195.76
20
249
30
0
11
195.76
21
169
31
0
0
ARC
8
CUT
10
198.76
20
169
30
0
40
3
50
180
51
270
0
CIRCLE
8
CUT
10
205.76
20
176
30
0
40
2
0
CIRCLE
8
CUT
10
311.76
20
176
30
0
40
2
0
CIRCLE
8
CUT
10
205.76
20
242
30
0
40
2
0
CIRCLE
8
CUT
10
311.76
20
242
30
0
40
2
0
LINE
8
CUT
10
248.76
20
252
30
0
11
268.76
21
252
31
0
0
ARC
8
CUT
10
268.76
20
249
30
0
40
3
50
90
51
270
0
LINE
8
CUT
10
268.76
20
246
30
0
11
248.76
21
246
31
0
0
ARC
8
CUT
10
248.76
20
249
30
0
40
3
50
270
51
90
0
ENDSEC
0
EOF
