0
SECTION
2
HEADER
9
$INSUNITS
70
4
0
ENDSEC
0
SECTION
2
TABLES
0
TABLE
2
LAYER
70
3
0
LAYER
2
CUT
70
0
62
1
6
CONTINUOUS
0
LAYER
2
ENGRAVE
70
0
62
5
6
CONTINUOUS
0
LAYER
2
INFO
70
0
62
8
6
CONTINUOUS
0
ENDTAB
0
ENDSEC
0
SECTION
2
ENTITIES
0
TEXT
8
INFO
10
0
20
-8
30
0
40
4
1
Монтажный короб; толщина 4 мм; рез 0.15 мм
0
TEXT
8
INFO
10
0
20
-7
30
0
40
4
1
Дно: пазы под стенки и монтажные отверстия
0
LINE
8
CUT
10
3
20
0
30
0
11
125
21
0
31
0
0
ARC
8
CUT
10
125
20
3
30
0
40
3
50
270
51
360
0
LINE
8
CUT
10
128
20
3
30
0
11
128
21
85
31
0
0
ARC
8
CUT
10
125
20
85
30
0
40
3
50
0
51
90
0
LINE
8
CUT
10
125
20
88
30
0
11
3
21
88
31
0
0
ARC
8
CUT
10
3
20
85
30
0
40
3
50
90
51
180
0
LINE
8
CUT
10
0
20
85
30
0
11
0
21
3
31
0
0
ARC
8
CUT
10
3
20
3
30
0
40
3
50
180
51
270
0
LINE
8
CUT
10
7.275
20
0
30
0
11
19.125
21
0
31
0
0
LINE
8
CUT
10
19.125
20
0
30
0
11
19.125
21
4.15
31
0
0
LINE
8
CUT
10
19.125
20
4.15
30
0
11
7.275
21
4.15
31
0
0
LINE
8
CUT
10
7.275
20
4.15
30
0
11
7.275
21
0
31
0
0
LINE
8
CUT
10
24.2083
20
0
30
0
11
36.0583
21
0
31
0
0
LINE
8
CUT
10
36.0583
20
0
30
0
11
36.0583
21
4.15
31
0
0
LINE
8
CUT
10
36.0583
20
4.15
30
0
11
24.2083
21
4.15
31
0
0
LINE
8
CUT
10
24.2083
20
4.15
30
0
11
24.2083
21
0
31
0
0
LINE
8
CUT
10
41.1417
20
0
30
0
11
52.9917
21
0
31
0
0
LINE
8
CUT
10
52.9917
20
0
30
0
11
52.9917
21
4.15
31
0
0
LINE
8
CUT
10
52.9917
20
4.15
30
0
11
41.1417
21
4.15
31
0
0
LINE
8
CUT
10
41.1417
20
4.15
30
0
11
41.1417
21
0
31
0
0
LINE
8
CUT
10
58.075
20
0
30
0
11
69.925
21
0
31
0
0
LINE
8
CUT
10
69.925
20
0
30
0
11
69.925
21
4.15
31
0
0
LINE
8
CUT
10
69.925
20
4.15
30
0
11
58.075
21
4.15
31
0
0
LINE
8
CUT
10
58.075
20
4.15
30
0
11
58.075
21
0
31
0
0
LINE
8
CUT
10
75.0083
20
0
30
0
11
86.8583
21
0
31
0
0
LINE
8
CUT
10
86.8583
20
0
30
0
11
86.8583
21
4.15
31
0
0
LINE
8
CUT
10
86.8583
20
4.15
30
0
11
75.0083
21
4.15
31
0
0
LINE
8
CUT
10
75.0083
20
4.15
30
0
11
75.0083
21
0
31
0
0
LINE
8
CUT
10
91.9417
20
0
30
0
11
103.7917
21
0
31
0
0
LINE
8
CUT
10
103.7917
20
0
30
0
11
103.7917
21
4.15
31
0
0
LINE
8
CUT
10
103.7917
20
4.15
30
0
11
91.9417
21
4.15
31
0
0
LINE
8
CUT
10
91.9417
20
4.15
30
0
11
91.9417
21
0
31
0
0
LINE
8
CUT
10
108.875
20
0
30
0
11
120.725
21
0
31
0
0
LINE
8
CUT
10
120.725
20
0
30
0
11
120.725
21
4.15
31
0
0
LINE
8
CUT
10
120.725
20
4.15
30
0
11
108.875
21
4.15
31
0
0
LINE
8
CUT
10
108.875
20
4.15
30
0
11
108.875
21
0
31
0
0
LINE
8
CUT
10
7.275
20
83.85
30
0
11
19.125
21
83.85
31
0
0
LINE
8
CUT
10
19.125
20
83.85
30
0
11
19.125
21
88
31
0
0
LINE
8
CUT
10
19.125
20
88
30
0
11
7.275
21
88
31
0
0
LINE
8
CUT
10
7.275
20
88
30
0
11
7.275
21
83.85
31
0
0
LINE
8
CUT
10
24.2083
20
83.85
30
0
11
36.0583
21
83.85
31
0
0
LINE
8
CUT
10
36.0583
20
83.85
30
0
11
36.0583
21
88
31
0
0
LINE
8
CUT
10
36.0583
20
88
30
0
11
24.2083
21
88
31
0
0
LINE
8
CUT
10
24.2083
20
88
30
0
11
24.2083
21
83.85
31
0
0
LINE
8
CUT
10
41.1417
20
83.85
30
0
11
52.9917
21
83.85
31
0
0
LINE
8
CUT
10
52.9917
20
83.85
30
0
11
52.9917
21
88
31
0
0
LINE
8
CUT
10
52.9917
20
88
30
0
11
41.1417
21
88
31
0
0
LINE
8
CUT
10
41.1417
20
88
30
0
11
41.1417
21
83.85
31
0
0
LINE
8
CUT
10
58.075
20
83.85
30
0
11
69.925
21
83.85
31
0
0
LINE
8
CUT
10
69.925
20
83.85
30
0
11
69.925
21
88
31
0
0
LINE
8
CUT
10
69.925
20
88
30
0
11
58.075
21
88
31
0
0
LINE
8
CUT
10
58.075
20
88
30
0
11
58.075
21
83.85
31
0
0
LINE
8
CUT
10
75.0083
20
83.85
30
0
11
86.8583
21
83.85
31
0
0
LINE
8
CUT
10
86.8583
20
83.85
30
0
11
86.8583
21
88
31
0
0
LINE
8
CUT
10
86.8583
20
88
30
0
11
75.0083
21
88
31
0
0
LINE
8
CUT
10
75.0083
20
88
30
0
11
75.0083
21
83.85
31
0
0
LINE
8
CUT
10
91.9417
20
83.85
30
0
11
103.7917
21
83.85
31
0
0
LINE
8
CUT
10
103.7917
20
83.85
30
0
11
103.7917
21
88
31
0
0
LINE
8
CUT
10
103.7917
20
88
30
0
11
91.9417
21
88
31
0
0
LINE
8
CUT
10
91.9417
20
88
30
0
11
91.9417
21
83.85
31
0
0
LINE
8
CUT
10
108.875
20
83.85
30
0
11
120.725
21
83.85
31
0
0
LINE
8
CUT
10
120.725
20
83.85
30
0
11
120.725
21
88
31
0
0
LINE
8
CUT
10
120.725
20
88
30
0
11
108.875
21
88
31
0
0
LINE
8
CUT
10
108.875
20
88
30
0
11
108.875
21
83.85
31
0
0
LINE
8
CUT
10
0
20
11.275
30
0
11
4.15
21
11.275
31
0
0
LINE
8
CUT
10
4.15
20
11.275
30
0
11
4.15
21
23.125
31
0
0
LINE
8
CUT
10
4.15
20
23.125
30
0
11
0
21
23.125
31
0
0
LINE
8
CUT
10
0
20
23.125
30
0
11
0
21
11.275
31
0
0
LINE
8
CUT
10
0
20
29.1417
30
0
11
4.15
21
29.1417
31
0
0
LINE
8
CUT
10
4.15
20
29.1417
30
0
11
4.15
21
40.9917
31
0
0
LINE
8
CUT
10
4.15
20
40.9917
30
0
11
0
21
40.9917
31
0
0
LINE
8
CUT
10
0
20
40.9917
30
0
11
0
21
29.1417
31
0
0
LINE
8
CUT
10
0
20
47.0083
30
0
11
4.15
21
47.0083
31
0
0
LINE
8
CUT
10
4.15
20
47.0083
30
0
11
4.15
21
58.8583
31
0
0
LINE
8
CUT
10
4.15
20
58.8583
30
0
11
0
21
58.8583
31
0
0
LINE
8
CUT
10
0
20
58.8583
30
0
11
0
21
47.0083
31
0
0
LINE
8
CUT
10
0
20
64.875
30
0
11
4.15
21
64.875
31
0
0
LINE
8
CUT
10
4.15
20
64.875
30
0
11
4.15
21
76.725
31
0
0
LINE
8
CUT
10
4.15
20
76.725
30
0
11
0
21
76.725
31
0
0
LINE
8
CUT
10
0
20
76.725
30
0
11
0
21
64.875
31
0
0
LINE
8
CUT
10
123.85
20
11.275
30
0
11
128
21
11.275
31
0
0
LINE
8
CUT
10
128
20
11.275
30
0
11
128
21
23.125
31
0
0
LINE
8
CUT
10
128
20
23.125
30
0
11
123.85
21
23.125
31
0
0
LINE
8
CUT
10
123.85
20
23.125
30
0
11
123.85
21
11.275
31
0
0
LINE
8
CUT
10
123.85
20
29.1417
30
0
11
128
21
29.1417
31
0
0
LINE
8
CUT
10
128
20
29.1417
30
0
11
128
21
40.9917
31
0
0
LINE
8
CUT
10
128
20
40.9917
30
0
11
123.85
21
40.9917
31
0
0
LINE
8
CUT
10
123.85
20
40.9917
30
0
11
123.85
21
29.1417
31
0
0
LINE
8
CUT
10
123.85
20
47.0083
30
0
11
128
21
47.0083
31
0
0
LINE
8
CUT
10
128
20
47.0083
30
0
11
128
21
58.8583
31
0
0
LINE
8
CUT
10
128
20
58.8583
30
0
11
123.85
21
58.8583
31
0
0
LINE
8
CUT
10
123.85
20
58.8583
30
0
11
123.85
21
47.0083
31
0
0
LINE
8
CUT
10
123.85
20
64.875
30
0
11
128
21
64.875
31
0
0
LINE
8
CUT
10
128
20
64.875
30
0
11
128
21
76.725
31
0
0
LINE
8
CUT
10
128
20
76.725
30
0
11
123.85
21
76.725
31
0
0
LINE
8
CUT
10
123.85
20
76.725
30
0
11
123.85
21
64.875
31
0
0
CIRCLE
8
CUT
10
10
20
10
30
0
40
2
0
CIRCLE
8
CUT
10
118
20
10
30
0
40
2
0
CIRCLE
8
CUT
10
10
20
78
30
0
40
2
0
CIRCLE
8
CUT
10
118
20
78
30
0
40
2
0
TEXT
8
INFO
10
0
20
97
30
0
40
4
1
Передняя стенка: пазы под боковины
0
LINE
8
CUT
10
0
20
104
30
0
11
7.2
21
104
31
0
0
LINE
8
CUT
10
7.2
20
104
30
0
11
7.2
21
100.075
31
0
0
LINE
8
CUT
10
7.2
20
100.075
30
0
11
19.2
21
100.075
31
0
0
LINE
8
CUT
10
19.2
20
100.075
30
0
11
19.2
21
104
31
0
0
LINE
8
CUT
10
19.2
20
104
30
0
11
24.1333
21
104
31
0
0
LINE
8
CUT
10
24.1333
20
104
30
0
11
24.1333
21
100.075
31
0
0
LINE
8
CUT
10
24.1333
20
100.075
30
0
11
36.1333
21
100.075
31
0
0
LINE
8
CUT
10
36.1333
20
100.075
30
0
11
36.1333
21
104
31
0
0
LINE
8
CUT
10
36.1333
20
104
30
0
11
41.0667
21
104
31
0
0
LINE
8
CUT
10
41.0667
20
104
30
0
11
41.0667
21
100.075
31
0
0
LINE
8
CUT
10
41.0667
20
100.075
30
0
11
53.0667
21
100.075
31
0
0
LINE
8
CUT
10
53.0667
20
100.075
30
0
11
53.0667
21
104
31
0
0
LINE
8
CUT
10
53.0667
20
104
30
0
11
58
21
104
31
0
0
LINE
8
CUT
10
58
20
104
30
0
11
58
21
100.075
31
0
0
LINE
8
CUT
10
58
20
100.075
30
0
11
70
21
100.075
31
0
0
LINE
8
CUT
10
70
20
100.075
30
0
11
70
21
104
31
0
0
LINE
8
CUT
10
70
20
104
30
0
11
74.9333
21
104
31
0
0
LINE
8
CUT
10
74.9333
20
104
30
0
11
74.9333
21
100.075
31
0
0
LINE
8
CUT
10
74.9333
20
100.075
30
0
11
86.9333
21
100.075
31
0
0
LINE
8
CUT
10
86.9333
20
100.075
30
0
11
86.9333
21
104
31
0
0
LINE
8
CUT
10
86.9333
20
104
30
0
11
91.8667
21
104
31
0
0
LINE
8
CUT
10
91.8667
20
104
30
0
11
91.8667
21
100.075
31
0
0
LINE
8
CUT
10
91.8667
20
100.075
30
0
11
103.8667
21
100.075
31
0
0
LINE
8
CUT
10
103.8667
20
100.075
30
0
11
103.8667
21
104
31
0
0
LINE
8
CUT
10
103.8667
20
104
30
0
11
108.8
21
104
31
0
0
LINE
8
CUT
10
108.8
20
104
30
0
11
108.8
21
100.075
31
0
0
LINE
8
CUT
10
108.8
20
100.075
30
0
11
120.8
21
100.075
31
0
0
LINE
8
CUT
10
120.8
20
100.075
30
0
11
120.8
21
104
31
0
0
LINE
8
CUT
10
120.8
20
104
30
0
11
128
21
104
31
0
0
LINE
8
CUT
10
128
20
104
30
0
11
128
21
154
31
0
0
LINE
8
CUT
10
128
20
154
30
0
11
0
21
154
31
0
0
LINE
8
CUT
10
0
20
154
30
0
11
0
21
104
31
0
0
LINE
8
CUT
10
0
20
113.075
30
0
11
4.15
21
113.075
31
0
0
LINE
8
CUT
10
4.15
20
113.075
30
0
11
4.15
21
124.925
31
0
0
LINE
8
CUT
10
4.15
20
124.925
30
0
11
0
21
124.925
31
0
0
LINE
8
CUT
10
0
20
124.925
30
0
11
0
21
113.075
31
0
0
LINE
8
CUT
10
123.85
20
113.075
30
0
11
128
21
113.075
31
0
0
LINE
8
CUT
10
128
20
113.075
30
0
11
128
21
124.925
31
0
0
LINE
8
CUT
10
128
20
124.925
30
0
11
123.85
21
124.925
31
0
0
LINE
8
CUT
10
123.85
20
124.925
30
0
11
123.85
21
113.075
31
0
0
LINE
8
CUT
10
0
20
133.075
30
0
11
4.15
21
133.075
31
0
0
LINE
8
CUT
10
4.15
20
133.075
30
0
11
4.15
21
144.925
31
0
0
LINE
8
CUT
10
4.15
20
144.925
30
0
11
0
21
144.925
31
0
0
LINE
8
CUT
10
0
20
144.925
30
0
11
0
21
133.075
31
0
0
LINE
8
CUT
10
123.85
20
133.075
30
0
11
128
21
133.075
31
0
0
LINE
8
CUT
10
128
20
133.075
30
0
11
128
21
144.925
31
0
0
LINE
8
CUT
10
128
20
144.925
30
0
11
123.85
21
144.925
31
0
0
LINE
8
CUT
10
123.85
20
144.925
30
0
11
123.85
21
133.075
31
0
0
CIRCLE
8
CUT
10
10
20
144
30
0
40
2
0
CIRCLE
8
CUT
10
118
20
144
30
0
40
2
0
TEXT
8
INFO
10
140
20
97
30
0
40
4
1
Задняя стенка: пазы под боковины
0
LINE
8
CUT
10
140
20
104
30
0
11
147.2
21
104
31
0
0
LINE
8
CUT
10
147.2
20
104
30
0
11
147.2
21
100.075
31
0
0
LINE
8
CUT
10
147.2
20
100.075
30
0
11
159.2
21
100.075
31
0
0
LINE
8
CUT
10
159.2
20
100.075
30
0
11
159.2
21
104
31
0
0
LINE
8
CUT
10
159.2
20
104
30
0
11
164.1333
21
104
31
0
0
LINE
8
CUT
10
164.1333
20
104
30
0
11
164.1333
21
100.075
31
0
0
LINE
8
CUT
10
164.1333
20
100.075
30
0
11
176.1333
21
100.075
31
0
0
LINE
8
CUT
10
176.1333
20
100.075
30
0
11
176.1333
21
104
31
0
0
LINE
8
CUT
10
176.1333
20
104
30
0
11
181.0667
21
104
31
0
0
LINE
8
CUT
10
181.0667
20
104
30
0
11
181.0667
21
100.075
31
0
0
LINE
8
CUT
10
181.0667
20
100.075
30
0
11
193.0667
21
100.075
31
0
0
LINE
8
CUT
10
193.0667
20
100.075
30
0
11
193.0667
21
104
31
0
0
LINE
8
CUT
10
193.0667
20
104
30
0
11
198
21
104
31
0
0
LINE
8
CUT
10
198
20
104
30
0
11
198
21
100.075
31
0
0
LINE
8
CUT
10
198
20
100.075
30
0
11
210
21
100.075
31
0
0
LINE
8
CUT
10
210
20
100.075
30
0
11
210
21
104
31
0
0
LINE
8
CUT
10
210
20
104
30
0
11
214.9333
21
104
31
0
0
LINE
8
CUT
10
214.9333
20
104
30
0
11
214.9333
21
100.075
31
0
0
LINE
8
CUT
10
214.9333
20
100.075
30
0
11
226.9333
21
100.075
31
0
0
LINE
8
CUT
10
226.9333
20
100.075
30
0
11
226.9333
21
104
31
0
0
LINE
8
CUT
10
226.9333
20
104
30
0
11
231.8667
21
104
31
0
0
LINE
8
CUT
10
231.8667
20
104
30
0
11
231.8667
21
100.075
31
0
0
LINE
8
CUT
10
231.8667
20
100.075
30
0
11
243.8667
21
100.075
31
0
0
LINE
8
CUT
10
243.8667
20
100.075
30
0
11
243.8667
21
104
31
0
0
LINE
8
CUT
10
243.8667
20
104
30
0
11
248.8
21
104
31
0
0
LINE
8
CUT
10
248.8
20
104
30
0
11
248.8
21
100.075
31
0
0
LINE
8
CUT
10
248.8
20
100.075
30
0
11
260.8
21
100.075
31
0
0
LINE
8
CUT
10
260.8
20
100.075
30
0
11
260.8
21
104
31
0
0
LINE
8
CUT
10
260.8
20
104
30
0
11
268
21
104
31
0
0
LINE
8
CUT
10
268
20
104
30
0
11
268
21
154
31
0
0
LINE
8
CUT
10
268
20
154
30
0
11
140
21
154
31
0
0
LINE
8
CUT
10
140
20
154
30
0
11
140
21
104
31
0
0
LINE
8
CUT
10
140
20
113.075
30
0
11
144.15
21
113.075
31
0
0
LINE
8
CUT
10
144.15
20
113.075
30
0
11
144.15
21
124.925
31
0
0
LINE
8
CUT
10
144.15
20
124.925
30
0
11
140
21
124.925
31
0
0
LINE
8
CUT
10
140
20
124.925
30
0
11
140
21
113.075
31
0
0
LINE
8
CUT
10
263.85
20
113.075
30
0
11
268
21
113.075
31
0
0
LINE
8
CUT
10
268
20
113.075
30
0
11
268
21
124.925
31
0
0
LINE
8
CUT
10
268
20
124.925
30
0
11
263.85
21
124.925
31
0
0
LINE
8
CUT
10
263.85
20
124.925
30
0
11
263.85
21
113.075
31
0
0
LINE
8
CUT
10
140
20
133.075
30
0
11
144.15
21
133.075
31
0
0
LINE
8
CUT
10
144.15
20
133.075
30
0
11
144.15
21
144.925
31
0
0
LINE
8
CUT
10
144.15
20
144.925
30
0
11
140
21
144.925
31
0
0
LINE
8
CUT
10
140
20
144.925
30
0
11
140
21
133.075
31
0
0
LINE
8
CUT
10
263.85
20
133.075
30
0
11
268
21
133.075
31
0
0
LINE
8
CUT
10
268
20
133.075
30
0
11
268
21
144.925
31
0
0
LINE
8
CUT
10
268
20
144.925
30
0
11
263.85
21
144.925
31
0
0
LINE
8
CUT
10
263.85
20
144.925
30
0
11
263.85
21
133.075
31
0
0
CIRCLE
8
CUT
10
150
20
144
30
0
40
2
0
CIRCLE
8
CUT
10
258
20
144
30
0
40
2
0
TEXT
8
INFO
10
0
20
163
30
0
40
4
1
Левая боковина: нижние и боковые шипы
0
LINE
8
CUT
10
0
20
170
30
0
11
7.2
21
170
31
0
0
LINE
8
CUT
10
7.2
20
170
30
0
11
7.2
21
166.075
31
0
0
LINE
8
CUT
10
7.2
20
166.075
30
0
11
19.2
21
166.075
31
0
0
LINE
8
CUT
10
19.2
20
166.075
30
0
11
19.2
21
170
31
0
0
LINE
8
CUT
10
19.2
20
170
30
0
11
25.0667
21
170
31
0
0
LINE
8
CUT
10
25.0667
20
170
30
0
11
25.0667
21
166.075
31
0
0
LINE
8
CUT
10
25.0667
20
166.075
30
0
11
37.0667
21
166.075
31
0
0
LINE
8
CUT
10
37.0667
20
166.075
30
0
11
37.0667
21
170
31
0
0
LINE
8
CUT
10
37.0667
20
170
30
0
11
42.9333
21
170
31
0
0
LINE
8
CUT
10
42.9333
20
170
30
0
11
42.9333
21
166.075
31
0
0
LINE
8
CUT
10
42.9333
20
166.075
30
0
11
54.9333
21
166.075
31
0
0
LINE
8
CUT
10
54.9333
20
166.075
30
0
11
54.9333
21
170
31
0
0
LINE
8
CUT
10
54.9333
20
170
30
0
11
60.8
21
170
31
0
0
LINE
8
CUT
10
60.8
20
170
30
0
11
60.8
21
166.075
31
0
0
LINE
8
CUT
10
60.8
20
166.075
30
0
11
72.8
21
166.075
31
0
0
LINE
8
CUT
10
72.8
20
166.075
30
0
11
72.8
21
170
31
0
0
LINE
8
CUT
10
72.8
20
170
30
0
11
80
21
170
31
0
0
LINE
8
CUT
10
80
20
170
30
0
11
80
21
179
31
0
0
LINE
8
CUT
10
80
20
179
30
0
11
83.925
21
179
31
0
0
LINE
8
CUT
10
83.925
20
179
30
0
11
83.925
21
191
31
0
0
LINE
8
CUT
10
83.925
20
191
30
0
11
80
21
191
31
0
0
LINE
8
CUT
10
80
20
191
30
0
11
80
21
199
31
0
0
LINE
8
CUT
10
80
20
199
30
0
11
83.925
21
199
31
0
0
LINE
8
CUT
10
83.925
20
199
30
0
11
83.925
21
211
31
0
0
LINE
8
CUT
10
83.925
20
211
30
0
11
80
21
211
31
0
0
LINE
8
CUT
10
80
20
211
30
0
11
80
21
220
31
0
0
LINE
8
CUT
10
80
20
220
30
0
11
0
21
220
31
0
0
LINE
8
CUT
10
0
20
220
30
0
11
0
21
211
31
0
0
LINE
8
CUT
10
0
20
211
30
0
11
-3.925
21
211
31
0
0
LINE
8
CUT
10
-3.925
20
211
30
0
11
-3.925
21
199
31
0
0
LINE
8
CUT
10
-3.925
20
199
30
0
11
0
21
199
31
0
0
LINE
8
CUT
10
0
20
199
30
0
11
0
21
191
31
0
0
LINE
8
CUT
10
0
20
191
30
0
11
-3.925
21
191
31
0
0
LINE
8
CUT
10
-3.925
20
191
30
0
11
-3.925
21
179
31
0
0
LINE
8
CUT
10
-3.925
20
179
30
0
11
0
21
179
31
0
0
LINE
8
CUT
10
0
20
179
30
0
11
0
21
170
31
0
0
CIRCLE
8
CUT
10
10
20
210
30
0
40
2
0
CIRCLE
8
CUT
10
70
20
210
30
0
40
2
0
TEXT
8
INFO
10
99.85
20
163
30
0
40
4
1
Правая боковина: нижние и боковые шипы
0
LINE
8
CUT
10
99.85
20
170
30
0
11
107.05
21
170
31
0
0
LINE
8
CUT
10
107.05
20
170
30
0
11
107.05
21
166.075
31
0
0
LINE
8
CUT
10
107.05
20
166.075
30
0
11
119.05
21
166.075
31
0
0
LINE
8
CUT
10
119.05
20
166.075
30
0
11
119.05
21
170
31
0
0
LINE
8
CUT
10
119.05
20
170
30
0
11
124.9167
21
170
31
0
0
LINE
8
CUT
10
124.9167
20
170
30
0
11
124.9167
21
166.075
31
0
0
LINE
8
CUT
10
124.9167
20
166.075
30
0
11
136.9167
21
166.075
31
0
0
LINE
8
CUT
10
136.9167
20
166.075
30
0
11
136.9167
21
170
31
0
0
LINE
8
CUT
10
136.9167
20
170
30
0
11
142.7833
21
170
31
0
0
LINE
8
CUT
10
142.7833
20
170
30
0
11
142.7833
21
166.075
31
0
0
LINE
8
CUT
10
142.7833
20
166.075
30
0
11
154.7833
21
166.075
31
0
0
LINE
8
CUT
10
154.7833
20
166.075
30
0
11
154.7833
21
170
31
0
0
LINE
8
CUT
10
154.7833
20
170
30
0
11
160.65
21
170
31
0
0
LINE
8
CUT
10
160.65
20
170
30
0
11
160.65
21
166.075
31
0
0
LINE
8
CUT
10
160.65
20
166.075
30
0
11
172.65
21
166.075
31
0
0
LINE
8
CUT
10
172.65
20
166.075
30
0
11
172.65
21
170
31
0
0
LINE
8
CUT
10
172.65
20
170
30
0
11
179.85
21
170
31
0
0
LINE
8
CUT
10
179.85
20
170
30
0
11
179.85
21
179
31
0
0
LINE
8
CUT
10
179.85
20
179
30
0
11
183.775
21
179
31
0
0
LINE
8
CUT
10
183.775
20
179
30
0
11
183.775
21
191
31
0
0
LINE
8
CUT
10
183.775
20
191
30
0
11
179.85
21
191
31
0
0
LINE
8
CUT
10
179.85
20
191
30
0
11
179.85
21
199
31
0
0
LINE
8
CUT
10
179.85
20
199
30
0
11
183.775
21
199
31
0
0
LINE
8
CUT
10
183.775
20
199
30
0
11
183.775
21
211
31
0
0
LINE
8
CUT
10
183.775
20
211
30
0
11
179.85
21
211
31
0
0
LINE
8
CUT
10
179.85
20
211
30
0
11
179.85
21
220
31
0
0
LINE
8
CUT
10
179.85
20
220
30
0
11
99.85
21
220
31
0
0
LINE
8
CUT
10
99.85
20
220
30
0
11
99.85
21
211
31
0
0
LINE
8
CUT
10
99.85
20
211
30
0
11
95.925
21
211
31
0
0
LINE
8
CUT
10
95.925
20
211
30
0
11
95.925
21
199
31
0
0
LINE
8
CUT
10
95.925
20
199
30
0
11
99.85
21
199
31
0
0
LINE
8
CUT
10
99.85
20
199
30
0
11
99.85
21
191
31
0
0
LINE
8
CUT
10
99.85
20
191
30
0
11
95.925
21
191
31
0
0
LINE
8
CUT
10
95.925
20
191
30
0
11
95.925
21
179
31
0
0
LINE
8
CUT
10
95.925
20
179
30
0
11
99.85
21
179
31
0
0
LINE
8
CUT
10
99.85
20
179
30
0
11
99.85
21
170
31
0
0
CIRCLE
8
CUT
10
109.85
20
210
30
0
40
2
0
CIRCLE
8
CUT
10
169.85
20
210
30
0
40
2
0
TEXT
8
INFO
10
199.7
20
163
30
0
40
4
1
Крышка
0
LINE
8
CUT
10
202.7
20
170
30
0
11
324.7
21
170
31
0
0
ARC
8
CUT
10
324.7
20
173
30
0
40
3
50
270
51
360
0
LINE
8
CUT
10
327.7
20
173
30
0
11
327.7
21
255
31
0
0
ARC
8
CUT
10
324.7
20
255
30
0
40
3
50
0
51
90
0
LINE
8
CUT
10
324.7
20
258
30
0
11
202.7
21
258
31
0
0
ARC
8
CUT
10
202.7
20
255
30
0
40
3
50
90
51
180
0
LINE
8
CUT
10
199.7
20
255
30
0
11
199.7
21
173
31
0
0
ARC
8
CUT
10
202.7
20
173
30
0
40
3
50
180
51
270
0
CIRCLE
8
CUT
10
209.7
20
180
30
0
40
2
0
CIRCLE
8
CUT
10
317.7
20
180
30
0
40
2
0
CIRCLE
8
CUT
10
209.7
20
248
30
0
40
2
0
CIRCLE
8
CUT
10
317.7
20
248
30
0
40
2
0
LINE
8
CUT
10
253.7
20
258
30
0
11
273.7
21
258
31
0
0
ARC
8
CUT
10
273.7
20
255
30
0
40
3
50
90
51
270
0
LINE
8
CUT
10
273.7
20
252
30
0
11
253.7
21
252
31
0
0
ARC
8
CUT
10
253.7
20
255
30
0
40
3
50
270
51
90
0
ENDSEC
0
EOF
