<?xml version='1.0' encoding='utf-8'?>
<svg width="221.90mm" height="452.20mm" viewBox="0.0 0.0 221.90 452.20" xmlns="http://www.w3.org/2000/svg" xmlns:dc="http://purl.org/dc/elements/1.1/" xmlns:cc="http://creativecommons.org/ns#" xmlns:rdf="http://www.w3.org/1999/02/22-rdf-syntax-ns#" xmlns:svg="http://www.w3.org/2000/svg" xmlns:xlink="http://www.w3.org/1999/xlink" xmlns:inkscape="http://www.inkscape.org/namespaces/inkscape">
<!--
ElectronicsBox - Closed box with screw on top and mounting holes

Created with box.LaserBiz.ru (https://box.LaserBiz.ru)
Creation date: 2026-07-05 17:38:24
Command line (remove spaces between dashes): boxes ElectronicsBox 
Url: https://box.laserbiz.ru/site.wsgi/ElectronicsBox?FingerJoint_angle=90.0&FingerJoint_style=rectangular&FingerJoint_surroundingspaces=2.0&FingerJoint_bottom_lip=0.0&FingerJoint_edge_width=1.0&FingerJoint_extra_length=0.0&FingerJoint_finger=2.0&FingerJoint_play=0.0&FingerJoint_space=2.0&FingerJoint_width=1.0&x=100.0&y=100.0&h=100.0&outside=0&outside=1&triangle=25.0&d1=2.0&d2=3.0&d3=3.0&outsidemounts=0&outsidemounts=1&holedist=7.0&thickness=3.0&format=svg&tabs=0.0&qr_code=0&debug=0&labels=0&labels=1&reference=0&inner_corners=corner&burn=0.1&language=ru&render=2
Url short: https://box.laserbiz.ru/site.wsgi/ElectronicsBox
SettingsUrl: https://box.laserbiz.ru/site.wsgi/ElectronicsBox?FingerJoint_angle=90.0&FingerJoint_style=rectangular&FingerJoint_surroundingspaces=2.0&FingerJoint_bottom_lip=0.0&FingerJoint_edge_width=1.0&FingerJoint_extra_length=0.0&FingerJoint_finger=2.0&FingerJoint_play=0.0&FingerJoint_space=2.0&FingerJoint_width=1.0&x=100.0&y=100.0&h=100.0&outside=0&outside=1&triangle=25.0&d1=2.0&d2=3.0&d3=3.0&outsidemounts=0&outsidemounts=1&holedist=7.0&thickness=3.0&format=svg&tabs=0.0&qr_code=0&debug=0&labels=0&labels=1&reference=0&inner_corners=corner&burn=0.1&language=ru&render=2
SettingsUrl short: https://box.laserbiz.ru/site.wsgi/ElectronicsBox
-->
<title>ElectronicsBox</title>
<metadata>
<rdf:RDF><cc:Work>
<dc:title>Box - ElectronicsBox</dc:title>
<dc:date>2026-07-05 17:38:24</dc:date>
<dc:source>https://box.laserbiz.ru/site.wsgi/ElectronicsBox?FingerJoint_angle=90.0&amp;FingerJoint_style=rectangular&amp;FingerJoint_surroundingspaces=2.0&amp;FingerJoint_bottom_lip=0.0&amp;FingerJoint_edge_width=1.0&amp;FingerJoint_extra_length=0.0&amp;FingerJoint_finger=2.0&amp;FingerJoint_play=0.0&amp;FingerJoint_space=2.0&amp;FingerJoint_width=1.0&amp;x=100.0&amp;y=100.0&amp;h=100.0&amp;outside=0&amp;outside=1&amp;triangle=25.0&amp;d1=2.0&amp;d2=3.0&amp;d3=3.0&amp;outsidemounts=0&amp;outsidemounts=1&amp;holedist=7.0&amp;thickness=3.0&amp;format=svg&amp;tabs=0.0&amp;qr_code=0&amp;debug=0&amp;labels=0&amp;labels=1&amp;reference=0&amp;inner_corners=corner&amp;burn=0.1&amp;language=ru&amp;render=2</dc:source>
<dc:source>https://box.laserbiz.ru/site.wsgi/ElectronicsBox</dc:source>
<dc:description>Closed box with screw on top and mounting holes

Created with box.LaserBiz.ru (https://box.LaserBiz.ru)
Command line: boxes ElectronicsBox --FingerJoint_angle=90.0 --FingerJoint_style=rectangular --FingerJoint_surroundingspaces=2.0 --FingerJoint_bottom_lip=0.0 --FingerJoint_edge_width=1.0 --FingerJoint_extra_length=0.0 --FingerJoint_finger=2.0 --FingerJoint_play=0.0 --FingerJoint_space=2.0 --FingerJoint_width=1.0 --x=100.0 --y=100.0 --h=100.0 --outside=0 --outside=1 --triangle=25.0 --d1=2.0 --d2=3.0 --d3=3.0 --outsidemounts=0 --outsidemounts=1 --holedist=7.0 --thickness=3.0 --format=svg --tabs=0.0 --qr_code=0 --debug=0 --labels=0 --labels=1 --reference=0 --inner_corners=corner --burn=0.1
Command line short: boxes ElectronicsBox 
Url: https://box.laserbiz.ru/site.wsgi/ElectronicsBox?FingerJoint_angle=90.0&amp;FingerJoint_style=rectangular&amp;FingerJoint_surroundingspaces=2.0&amp;FingerJoint_bottom_lip=0.0&amp;FingerJoint_edge_width=1.0&amp;FingerJoint_extra_length=0.0&amp;FingerJoint_finger=2.0&amp;FingerJoint_play=0.0&amp;FingerJoint_space=2.0&amp;FingerJoint_width=1.0&amp;x=100.0&amp;y=100.0&amp;h=100.0&amp;outside=0&amp;outside=1&amp;triangle=25.0&amp;d1=2.0&amp;d2=3.0&amp;d3=3.0&amp;outsidemounts=0&amp;outsidemounts=1&amp;holedist=7.0&amp;thickness=3.0&amp;format=svg&amp;tabs=0.0&amp;qr_code=0&amp;debug=0&amp;labels=0&amp;labels=1&amp;reference=0&amp;inner_corners=corner&amp;burn=0.1&amp;language=ru&amp;render=2
Url short: https://box.laserbiz.ru/site.wsgi/ElectronicsBox
SettingsUrl: https://box.laserbiz.ru/site.wsgi/ElectronicsBox?FingerJoint_angle=90.0&amp;FingerJoint_style=rectangular&amp;FingerJoint_surroundingspaces=2.0&amp;FingerJoint_bottom_lip=0.0&amp;FingerJoint_edge_width=1.0&amp;FingerJoint_extra_length=0.0&amp;FingerJoint_finger=2.0&amp;FingerJoint_play=0.0&amp;FingerJoint_space=2.0&amp;FingerJoint_width=1.0&amp;x=100.0&amp;y=100.0&amp;h=100.0&amp;outside=0&amp;outside=1&amp;triangle=25.0&amp;d1=2.0&amp;d2=3.0&amp;d3=3.0&amp;outsidemounts=0&amp;outsidemounts=1&amp;holedist=7.0&amp;thickness=3.0&amp;format=svg&amp;tabs=0.0&amp;qr_code=0&amp;debug=0&amp;labels=0&amp;labels=1&amp;reference=0&amp;inner_corners=corner&amp;burn=0.1&amp;language=ru&amp;render=2
SettingsUrl short: https://box.laserbiz.ru/site.wsgi/ElectronicsBox
</dc:description>
</cc:Work></rdf:RDF></metadata>
<g id="p-0" style="fill:none;stroke-linecap:round;stroke-linejoin:round;">
  <path d="M 25.600 348.000 H 22.700 V 345.200 H 28.500 V 348.000 H 25.600 Z" stroke="rgb(0,0,255)" stroke-width="0.20" />
  <path d="M 94.600 345.200 H 97.500 V 348.000 H 91.700 V 345.200 H 94.600 Z" stroke="rgb(0,0,255)" stroke-width="0.20" />
  <text transform="matrix( 1.000 0.000 0.000 1.000 60.100 390.200 )" style="font-family: sans-serif ; font-weight: normal; font-style: normal; fill: rgb(255,0,0)" font-size="4px" text-anchor="middle" dominant-baseline="hanging">Wall 1</text><path d="M 13.100 439.200 H 21.000 V 442.100 C 21.000 442.155 21.045 442.200 21.100 442.200 H 27.100 C 27.155 442.200 27.200 442.155 27.200 442.100 V 439.200 H 33.000 V 442.100 C 33.000 442.155 33.045 442.200 33.100 442.200 H 39.100 C 39.155 442.200 39.200 442.155 39.200 442.100 V 439.200 H 45.000 V 442.100 C 45.000 442.155 45.045 442.200 45.100 442.200 H 51.100 C 51.155 442.200 51.200 442.155 51.200 442.100 V 439.200 H 57.000 V 442.100 C 57.000 442.155 57.045 442.200 57.100 442.200 H 63.100 C 63.155 442.200 63.200 442.155 63.200 442.100 V 439.200 H 69.000 V 442.100 C 69.000 442.155 69.045 442.200 69.100 442.200 H 75.100 C 75.155 442.200 75.200 442.155 75.200 442.100 V 439.200 H 81.000 V 442.100 C 81.000 442.155 81.045 442.200 81.100 442.200 H 87.100 C 87.155 442.200 87.200 442.155 87.200 442.100 V 439.200 H 93.000 V 442.100 C 93.000 442.155 93.045 442.200 93.100 442.200 H 99.100 C 99.155 442.200 99.200 442.155 99.200 442.100 V 439.200 H 107.100 H 110.100 C 110.155 439.200 110.200 439.155 110.200 439.100 V 429.600 C 110.200 429.545 110.155 429.500 110.100 429.500 H 107.200 V 423.700 H 110.100 C 110.155 423.700 110.200 423.655 110.200 423.600 V 417.600 C 110.200 417.545 110.155 417.500 110.100 417.500 H 107.200 V 411.700 H 110.100 C 110.155 411.700 110.200 411.655 110.200 411.600 V 405.600 C 110.200 405.545 110.155 405.500 110.100 405.500 H 107.200 V 399.700 H 110.100 C 110.155 399.700 110.200 399.655 110.200 399.600 V 393.600 C 110.200 393.545 110.155 393.500 110.100 393.500 H 107.200 V 387.700 H 110.100 C 110.155 387.700 110.200 387.655 110.200 387.600 V 381.600 C 110.200 381.545 110.155 381.500 110.100 381.500 H 107.200 V 375.700 H 110.100 C 110.155 375.700 110.200 375.655 110.200 375.600 V 369.600 C 110.200 369.545 110.155 369.500 110.100 369.500 H 107.200 V 363.700 H 110.100 C 110.155 363.700 110.200 363.655 110.200 363.600 V 357.600 C 110.200 357.545 110.155 357.500 110.100 357.500 H 107.200 V 351.700 H 110.100 C 110.155 351.700 110.200 351.655 110.200 351.600 V 342.100 C 110.200 342.045 110.155 342.000 110.100 342.000 H 107.100 H 13.100 H 10.100 C 10.045 342.000 10.000 342.045 10.000 342.100 V 351.600 C 10.000 351.655 10.045 351.700 10.100 351.700 H 13.000 V 357.500 H 10.100 C 10.045 357.500 10.000 357.545 10.000 357.600 V 363.600 C 10.000 363.655 10.045 363.700 10.100 363.700 H 13.000 V 369.500 H 10.100 C 10.045 369.500 10.000 369.545 10.000 369.600 V 375.600 C 10.000 375.655 10.045 375.700 10.100 375.700 H 13.000 V 381.500 H 10.100 C 10.045 381.500 10.000 381.545 10.000 381.600 V 387.600 C 10.000 387.655 10.045 387.700 10.100 387.700 H 13.000 V 393.500 H 10.100 C 10.045 393.500 10.000 393.545 10.000 393.600 V 399.600 C 10.000 399.655 10.045 399.700 10.100 399.700 H 13.000 V 405.500 H 10.100 C 10.045 405.500 10.000 405.545 10.000 405.600 V 411.600 C 10.000 411.655 10.045 411.700 10.100 411.700 H 13.000 V 417.500 H 10.100 C 10.045 417.500 10.000 417.545 10.000 417.600 V 423.600 C 10.000 423.655 10.045 423.700 10.100 423.700 H 13.000 V 429.500 H 10.100 C 10.045 429.500 10.000 429.545 10.000 429.600 V 439.100 C 10.000 439.155 10.045 439.200 10.100 439.200 H 13.100" stroke="rgb(0,0,0)" stroke-width="0.20" />
</g>
<g id="p-1" style="fill:none;stroke-linecap:round;stroke-linejoin:round;">
  <path d="M 127.300 348.000 H 124.400 V 345.200 H 130.200 V 348.000 H 127.300 Z" stroke="rgb(0,0,255)" stroke-width="0.20" />
  <path d="M 196.300 345.200 H 199.200 V 348.000 H 193.400 V 345.200 H 196.300 Z" stroke="rgb(0,0,255)" stroke-width="0.20" />
  <text transform="matrix( 1.000 0.000 0.000 1.000 161.800 390.200 )" style="font-family: sans-serif ; font-weight: normal; font-style: normal; fill: rgb(255,0,0)" font-size="4px" text-anchor="middle" dominant-baseline="hanging">Wall 2</text><path d="M 114.800 439.200 H 122.700 V 442.100 C 122.700 442.155 122.745 442.200 122.800 442.200 H 128.800 C 128.855 442.200 128.900 442.155 128.900 442.100 V 439.200 H 134.700 V 442.100 C 134.700 442.155 134.745 442.200 134.800 442.200 H 140.800 C 140.855 442.200 140.900 442.155 140.900 442.100 V 439.200 H 146.700 V 442.100 C 146.700 442.155 146.745 442.200 146.800 442.200 H 152.800 C 152.855 442.200 152.900 442.155 152.900 442.100 V 439.200 H 158.700 V 442.100 C 158.700 442.155 158.745 442.200 158.800 442.200 H 164.800 C 164.855 442.200 164.900 442.155 164.900 442.100 V 439.200 H 170.700 V 442.100 C 170.700 442.155 170.745 442.200 170.800 442.200 H 176.800 C 176.855 442.200 176.900 442.155 176.900 442.100 V 439.200 H 182.700 V 442.100 C 182.700 442.155 182.745 442.200 182.800 442.200 H 188.800 C 188.855 442.200 188.900 442.155 188.900 442.100 V 439.200 H 194.700 V 442.100 C 194.700 442.155 194.745 442.200 194.800 442.200 H 200.800 C 200.855 442.200 200.900 442.155 200.900 442.100 V 439.200 H 208.800 C 208.855 439.200 208.900 439.155 208.900 439.100 V 429.700 H 211.800 C 211.855 429.700 211.900 429.655 211.900 429.600 V 423.600 C 211.900 423.545 211.855 423.500 211.800 423.500 H 208.900 V 417.700 H 211.800 C 211.855 417.700 211.900 417.655 211.900 417.600 V 411.600 C 211.900 411.545 211.855 411.500 211.800 411.500 H 208.900 V 405.700 H 211.800 C 211.855 405.700 211.900 405.655 211.900 405.600 V 399.600 C 211.900 399.545 211.855 399.500 211.800 399.500 H 208.900 V 393.700 H 211.800 C 211.855 393.700 211.900 393.655 211.900 393.600 V 387.600 C 211.900 387.545 211.855 387.500 211.800 387.500 H 208.900 V 381.700 H 211.800 C 211.855 381.700 211.900 381.655 211.900 381.600 V 375.600 C 211.900 375.545 211.855 375.500 211.800 375.500 H 208.900 V 369.700 H 211.800 C 211.855 369.700 211.900 369.655 211.900 369.600 V 363.600 C 211.900 363.545 211.855 363.500 211.800 363.500 H 208.900 V 357.700 H 211.800 C 211.855 357.700 211.900 357.655 211.900 357.600 V 351.600 C 211.900 351.545 211.855 351.500 211.800 351.500 H 208.900 V 342.100 C 208.900 342.045 208.855 342.000 208.800 342.000 H 114.800 C 114.745 342.000 114.700 342.045 114.700 342.100 V 351.500 H 111.800 C 111.745 351.500 111.700 351.545 111.700 351.600 V 357.600 C 111.700 357.655 111.745 357.700 111.800 357.700 H 114.700 V 363.500 H 111.800 C 111.745 363.500 111.700 363.545 111.700 363.600 V 369.600 C 111.700 369.655 111.745 369.700 111.800 369.700 H 114.700 V 375.500 H 111.800 C 111.745 375.500 111.700 375.545 111.700 375.600 V 381.600 C 111.700 381.655 111.745 381.700 111.800 381.700 H 114.700 V 387.500 H 111.800 C 111.745 387.500 111.700 387.545 111.700 387.600 V 393.600 C 111.700 393.655 111.745 393.700 111.800 393.700 H 114.700 V 399.500 H 111.800 C 111.745 399.500 111.700 399.545 111.700 399.600 V 405.600 C 111.700 405.655 111.745 405.700 111.800 405.700 H 114.700 V 411.500 H 111.800 C 111.745 411.500 111.700 411.545 111.700 411.600 V 417.600 C 111.700 417.655 111.745 417.700 111.800 417.700 H 114.700 V 423.500 H 111.800 C 111.745 423.500 111.700 423.545 111.700 423.600 V 429.600 C 111.700 429.655 111.745 429.700 111.800 429.700 H 114.700 V 439.100 C 114.700 439.155 114.745 439.200 114.800 439.200" stroke="rgb(0,0,0)" stroke-width="0.20" />
</g>
<g id="p-2" style="fill:none;stroke-linecap:round;stroke-linejoin:round;">
  <path d="M 127.300 246.300 H 124.400 V 243.500 H 130.200 V 246.300 H 127.300 Z" stroke="rgb(0,0,255)" stroke-width="0.20" />
  <path d="M 196.300 243.500 H 199.200 V 246.300 H 193.400 V 243.500 H 196.300 Z" stroke="rgb(0,0,255)" stroke-width="0.20" />
  <text transform="matrix( 1.000 0.000 0.000 1.000 161.800 288.500 )" style="font-family: sans-serif ; font-weight: normal; font-style: normal; fill: rgb(255,0,0)" font-size="4px" text-anchor="middle" dominant-baseline="hanging">Wall 4</text><path d="M 114.800 337.500 H 122.700 V 340.400 C 122.700 340.455 122.745 340.500 122.800 340.500 H 128.800 C 128.855 340.500 128.900 340.455 128.900 340.400 V 337.500 H 134.700 V 340.400 C 134.700 340.455 134.745 340.500 134.800 340.500 H 140.800 C 140.855 340.500 140.900 340.455 140.900 340.400 V 337.500 H 146.700 V 340.400 C 146.700 340.455 146.745 340.500 146.800 340.500 H 152.800 C 152.855 340.500 152.900 340.455 152.900 340.400 V 337.500 H 158.700 V 340.400 C 158.700 340.455 158.745 340.500 158.800 340.500 H 164.800 C 164.855 340.500 164.900 340.455 164.900 340.400 V 337.500 H 170.700 V 340.400 C 170.700 340.455 170.745 340.500 170.800 340.500 H 176.800 C 176.855 340.500 176.900 340.455 176.900 340.400 V 337.500 H 182.700 V 340.400 C 182.700 340.455 182.745 340.500 182.800 340.500 H 188.800 C 188.855 340.500 188.900 340.455 188.900 340.400 V 337.500 H 194.700 V 340.400 C 194.700 340.455 194.745 340.500 194.800 340.500 H 200.800 C 200.855 340.500 200.900 340.455 200.900 340.400 V 337.500 H 208.800 C 208.855 337.500 208.900 337.455 208.900 337.400 V 328.000 H 211.800 C 211.855 328.000 211.900 327.955 211.900 327.900 V 321.900 C 211.900 321.845 211.855 321.800 211.800 321.800 H 208.900 V 316.000 H 211.800 C 211.855 316.000 211.900 315.955 211.900 315.900 V 309.900 C 211.900 309.845 211.855 309.800 211.800 309.800 H 208.900 V 304.000 H 211.800 C 211.855 304.000 211.900 303.955 211.900 303.900 V 297.900 C 211.900 297.845 211.855 297.800 211.800 297.800 H 208.900 V 292.000 H 211.800 C 211.855 292.000 211.900 291.955 211.900 291.900 V 285.900 C 211.900 285.845 211.855 285.800 211.800 285.800 H 208.900 V 280.000 H 211.800 C 211.855 280.000 211.900 279.955 211.900 279.900 V 273.900 C 211.900 273.845 211.855 273.800 211.800 273.800 H 208.900 V 268.000 H 211.800 C 211.855 268.000 211.900 267.955 211.900 267.900 V 261.900 C 211.900 261.845 211.855 261.800 211.800 261.800 H 208.900 V 256.000 H 211.800 C 211.855 256.000 211.900 255.955 211.900 255.900 V 249.900 C 211.900 249.845 211.855 249.800 211.800 249.800 H 208.900 V 240.400 C 208.900 240.345 208.855 240.300 208.800 240.300 H 114.800 C 114.745 240.300 114.700 240.345 114.700 240.400 V 249.800 H 111.800 C 111.745 249.800 111.700 249.845 111.700 249.900 V 255.900 C 111.700 255.955 111.745 256.000 111.800 256.000 H 114.700 V 261.800 H 111.800 C 111.745 261.800 111.700 261.845 111.700 261.900 V 267.900 C 111.700 267.955 111.745 268.000 111.800 268.000 H 114.700 V 273.800 H 111.800 C 111.745 273.800 111.700 273.845 111.700 273.900 V 279.900 C 111.700 279.955 111.745 280.000 111.800 280.000 H 114.700 V 285.800 H 111.800 C 111.745 285.800 111.700 285.845 111.700 285.900 V 291.900 C 111.700 291.955 111.745 292.000 111.800 292.000 H 114.700 V 297.800 H 111.800 C 111.745 297.800 111.700 297.845 111.700 297.900 V 303.900 C 111.700 303.955 111.745 304.000 111.800 304.000 H 114.700 V 309.800 H 111.800 C 111.745 309.800 111.700 309.845 111.700 309.900 V 315.900 C 111.700 315.955 111.745 316.000 111.800 316.000 H 114.700 V 321.800 H 111.800 C 111.745 321.800 111.700 321.845 111.700 321.900 V 327.900 C 111.700 327.955 111.745 328.000 111.800 328.000 H 114.700 V 337.400 C 114.700 337.455 114.745 337.500 114.800 337.500" stroke="rgb(0,0,0)" stroke-width="0.20" />
</g>
<g id="p-3" style="fill:none;stroke-linecap:round;stroke-linejoin:round;">
  <path d="M 25.600 246.300 H 22.700 V 243.500 H 28.500 V 246.300 H 25.600 Z" stroke="rgb(0,0,255)" stroke-width="0.20" />
  <path d="M 94.600 243.500 H 97.500 V 246.300 H 91.700 V 243.500 H 94.600 Z" stroke="rgb(0,0,255)" stroke-width="0.20" />
  <text transform="matrix( 1.000 0.000 0.000 1.000 60.100 288.500 )" style="font-family: sans-serif ; font-weight: normal; font-style: normal; fill: rgb(255,0,0)" font-size="4px" text-anchor="middle" dominant-baseline="hanging">Wall 3</text><path d="M 13.100 337.500 H 21.000 V 340.400 C 21.000 340.455 21.045 340.500 21.100 340.500 H 27.100 C 27.155 340.500 27.200 340.455 27.200 340.400 V 337.500 H 33.000 V 340.400 C 33.000 340.455 33.045 340.500 33.100 340.500 H 39.100 C 39.155 340.500 39.200 340.455 39.200 340.400 V 337.500 H 45.000 V 340.400 C 45.000 340.455 45.045 340.500 45.100 340.500 H 51.100 C 51.155 340.500 51.200 340.455 51.200 340.400 V 337.500 H 57.000 V 340.400 C 57.000 340.455 57.045 340.500 57.100 340.500 H 63.100 C 63.155 340.500 63.200 340.455 63.200 340.400 V 337.500 H 69.000 V 340.400 C 69.000 340.455 69.045 340.500 69.100 340.500 H 75.100 C 75.155 340.500 75.200 340.455 75.200 340.400 V 337.500 H 81.000 V 340.400 C 81.000 340.455 81.045 340.500 81.100 340.500 H 87.100 C 87.155 340.500 87.200 340.455 87.200 340.400 V 337.500 H 93.000 V 340.400 C 93.000 340.455 93.045 340.500 93.100 340.500 H 99.100 C 99.155 340.500 99.200 340.455 99.200 340.400 V 337.500 H 107.100 H 110.100 C 110.155 337.500 110.200 337.455 110.200 337.400 V 327.900 C 110.200 327.845 110.155 327.800 110.100 327.800 H 107.200 V 322.000 H 110.100 C 110.155 322.000 110.200 321.955 110.200 321.900 V 315.900 C 110.200 315.845 110.155 315.800 110.100 315.800 H 107.200 V 310.000 H 110.100 C 110.155 310.000 110.200 309.955 110.200 309.900 V 303.900 C 110.200 303.845 110.155 303.800 110.100 303.800 H 107.200 V 298.000 H 110.100 C 110.155 298.000 110.200 297.955 110.200 297.900 V 291.900 C 110.200 291.845 110.155 291.800 110.100 291.800 H 107.200 V 286.000 H 110.100 C 110.155 286.000 110.200 285.955 110.200 285.900 V 279.900 C 110.200 279.845 110.155 279.800 110.100 279.800 H 107.200 V 274.000 H 110.100 C 110.155 274.000 110.200 273.955 110.200 273.900 V 267.900 C 110.200 267.845 110.155 267.800 110.100 267.800 H 107.200 V 262.000 H 110.100 C 110.155 262.000 110.200 261.955 110.200 261.900 V 255.900 C 110.200 255.845 110.155 255.800 110.100 255.800 H 107.200 V 250.000 H 110.100 C 110.155 250.000 110.200 249.955 110.200 249.900 V 240.400 C 110.200 240.345 110.155 240.300 110.100 240.300 H 107.100 H 13.100 H 10.100 C 10.045 240.300 10.000 240.345 10.000 240.400 V 249.900 C 10.000 249.955 10.045 250.000 10.100 250.000 H 13.000 V 255.800 H 10.100 C 10.045 255.800 10.000 255.845 10.000 255.900 V 261.900 C 10.000 261.955 10.045 262.000 10.100 262.000 H 13.000 V 267.800 H 10.100 C 10.045 267.800 10.000 267.845 10.000 267.900 V 273.900 C 10.000 273.955 10.045 274.000 10.100 274.000 H 13.000 V 279.800 H 10.100 C 10.045 279.800 10.000 279.845 10.000 279.900 V 285.900 C 10.000 285.955 10.045 286.000 10.100 286.000 H 13.000 V 291.800 H 10.100 C 10.045 291.800 10.000 291.845 10.000 291.900 V 297.900 C 10.000 297.955 10.045 298.000 10.100 298.000 H 13.000 V 303.800 H 10.100 C 10.045 303.800 10.000 303.845 10.000 303.900 V 309.900 C 10.000 309.955 10.045 310.000 10.100 310.000 H 13.000 V 315.800 H 10.100 C 10.045 315.800 10.000 315.845 10.000 315.900 V 321.900 C 10.000 321.955 10.045 322.000 10.100 322.000 H 13.000 V 327.800 H 10.100 C 10.045 327.800 10.000 327.845 10.000 327.900 V 337.400 C 10.000 337.455 10.045 337.500 10.100 337.500 H 13.100" stroke="rgb(0,0,0)" stroke-width="0.20" />
</g>
<g id="p-4" style="fill:none;stroke-linecap:round;stroke-linejoin:round;">
  <path d="M 18.500 231.700 C 18.500 231.968 18.423 232.231 18.278 232.457 C 18.133 232.683 17.926 232.862 17.682 232.973 C 17.437 233.085 17.166 233.124 16.901 233.086 C 16.635 233.048 16.386 232.934 16.183 232.758 C 15.980 232.582 15.832 232.352 15.757 232.094 C 15.681 231.837 15.681 231.563 15.757 231.306 C 15.832 231.048 15.980 230.818 16.183 230.642 C 16.386 230.466 16.635 230.352 16.901 230.314 C 17.166 230.276 17.437 230.315 17.682 230.427 C 17.926 230.538 18.133 230.717 18.278 230.943 C 18.423 231.169 18.500 231.432 18.500 231.700 Z" stroke="rgb(0,0,255)" stroke-width="0.20" />
  <text transform="matrix( 1.000 0.000 0.000 1.000 74.100 186.800 )" style="font-family: sans-serif ; font-weight: normal; font-style: normal; fill: rgb(255,0,0)" font-size="4px" text-anchor="middle" dominant-baseline="hanging">Bottom</text><path d="M 17.100 238.800 H 27.100 H 35.100 C 35.155 238.800 35.200 238.755 35.200 238.700 V 235.800 H 41.000 V 238.700 C 41.000 238.755 41.045 238.800 41.100 238.800 H 47.100 C 47.155 238.800 47.200 238.755 47.200 238.700 V 235.800 H 53.000 V 238.700 C 53.000 238.755 53.045 238.800 53.100 238.800 H 59.100 C 59.155 238.800 59.200 238.755 59.200 238.700 V 235.800 H 65.000 V 238.700 C 65.000 238.755 65.045 238.800 65.100 238.800 H 71.100 C 71.155 238.800 71.200 238.755 71.200 238.700 V 235.800 H 77.000 V 238.700 C 77.000 238.755 77.045 238.800 77.100 238.800 H 83.100 C 83.155 238.800 83.200 238.755 83.200 238.700 V 235.800 H 89.000 V 238.700 C 89.000 238.755 89.045 238.800 89.100 238.800 H 95.100 C 95.155 238.800 95.200 238.755 95.200 238.700 V 235.800 H 101.000 V 238.700 C 101.000 238.755 101.045 238.800 101.100 238.800 H 107.100 C 107.155 238.800 107.200 238.755 107.200 238.700 V 235.800 H 113.000 V 238.700 C 113.000 238.755 113.045 238.800 113.100 238.800 H 121.100 H 131.100 C 132.346 238.800 133.571 238.472 134.650 237.849 C 135.729 237.226 136.626 236.329 137.249 235.250 C 137.872 234.171 138.200 232.946 138.200 231.700 V 145.700 C 138.200 144.454 137.872 143.229 137.249 142.150 C 136.626 141.071 135.729 140.174 134.650 139.551 C 133.571 138.928 132.346 138.600 131.100 138.600 H 121.100 H 113.100 C 113.045 138.600 113.000 138.645 113.000 138.700 V 141.600 H 107.200 V 138.700 C 107.200 138.645 107.155 138.600 107.100 138.600 H 101.100 C 101.045 138.600 101.000 138.645 101.000 138.700 V 141.600 H 95.200 V 138.700 C 95.200 138.645 95.155 138.600 95.100 138.600 H 89.100 C 89.045 138.600 89.000 138.645 89.000 138.700 V 141.600 H 83.200 V 138.700 C 83.200 138.645 83.155 138.600 83.100 138.600 H 77.100 C 77.045 138.600 77.000 138.645 77.000 138.700 V 141.600 H 71.200 V 138.700 C 71.200 138.645 71.155 138.600 71.100 138.600 H 65.100 C 65.045 138.600 65.000 138.645 65.000 138.700 V 141.600 H 59.200 V 138.700 C 59.200 138.645 59.155 138.600 59.100 138.600 H 53.100 C 53.045 138.600 53.000 138.645 53.000 138.700 V 141.600 H 47.200 V 138.700 C 47.200 138.645 47.155 138.600 47.100 138.600 H 41.100 C 41.045 138.600 41.000 138.645 41.000 138.700 V 141.600 H 35.200 V 138.700 C 35.200 138.645 35.155 138.600 35.100 138.600 H 27.100 H 17.100 C 15.854 138.600 14.629 138.928 13.550 139.551 C 12.471 140.174 11.574 141.071 10.951 142.150 C 10.328 143.229 10.000 144.454 10.000 145.700 V 231.700 C 10.000 232.946 10.328 234.171 10.951 235.250 C 11.574 236.329 12.471 237.226 13.550 237.849 C 14.629 238.472 15.854 238.800 17.100 238.800" stroke="rgb(0,0,0)" stroke-width="0.20" />
  <path d="M 131.100 230.300 C 131.368 230.300 131.631 230.377 131.857 230.522 C 132.083 230.667 132.262 230.874 132.373 231.118 C 132.485 231.363 132.524 231.634 132.486 231.899 C 132.448 232.165 132.334 232.414 132.158 232.617 C 131.982 232.820 131.752 232.968 131.494 233.043 C 131.237 233.119 130.963 233.119 130.706 233.043 C 130.448 232.968 130.218 232.820 130.042 232.617 C 129.866 232.414 129.752 232.165 129.714 231.899 C 129.676 231.634 129.715 231.363 129.827 231.118 C 129.938 230.874 130.117 230.667 130.343 230.522 C 130.569 230.377 130.832 230.300 131.100 230.300 Z" stroke="rgb(0,0,255)" stroke-width="0.20" />
  <path d="M 124.100 224.700 V 227.600 H 121.300 V 221.800 H 124.100 V 224.700 Z" stroke="rgb(0,0,255)" stroke-width="0.20" />
  <path d="M 124.100 212.700 V 215.600 H 121.300 V 209.800 H 124.100 V 212.700 Z" stroke="rgb(0,0,255)" stroke-width="0.20" />
  <path d="M 124.100 200.700 V 203.600 H 121.300 V 197.800 H 124.100 V 200.700 Z" stroke="rgb(0,0,255)" stroke-width="0.20" />
  <path d="M 124.100 188.700 V 191.600 H 121.300 V 185.800 H 124.100 V 188.700 Z" stroke="rgb(0,0,255)" stroke-width="0.20" />
  <path d="M 124.100 176.700 V 179.600 H 121.300 V 173.800 H 124.100 V 176.700 Z" stroke="rgb(0,0,255)" stroke-width="0.20" />
  <path d="M 124.100 164.700 V 167.600 H 121.300 V 161.800 H 124.100 V 164.700 Z" stroke="rgb(0,0,255)" stroke-width="0.20" />
  <path d="M 124.100 152.700 V 155.600 H 121.300 V 149.800 H 124.100 V 152.700 Z" stroke="rgb(0,0,255)" stroke-width="0.20" />
  <path d="M 129.700 145.700 C 129.700 145.432 129.777 145.169 129.922 144.943 C 130.067 144.717 130.274 144.538 130.518 144.427 C 130.763 144.315 131.034 144.276 131.299 144.314 C 131.565 144.352 131.814 144.466 132.017 144.642 C 132.220 144.818 132.368 145.048 132.443 145.306 C 132.519 145.563 132.519 145.837 132.443 146.094 C 132.368 146.352 132.220 146.582 132.017 146.758 C 131.814 146.934 131.565 147.048 131.299 147.086 C 131.034 147.124 130.763 147.085 130.518 146.973 C 130.274 146.862 130.067 146.683 129.922 146.457 C 129.777 146.231 129.700 145.968 129.700 145.700 Z" stroke="rgb(0,0,255)" stroke-width="0.20" />
  <path d="M 17.100 147.100 C 16.832 147.100 16.569 147.023 16.343 146.878 C 16.117 146.733 15.938 146.526 15.827 146.282 C 15.715 146.037 15.676 145.766 15.714 145.501 C 15.752 145.235 15.866 144.986 16.042 144.783 C 16.218 144.580 16.448 144.432 16.706 144.357 C 16.963 144.281 17.237 144.281 17.494 144.357 C 17.752 144.432 17.982 144.580 18.158 144.783 C 18.334 144.986 18.448 145.235 18.486 145.501 C 18.524 145.766 18.485 146.037 18.373 146.282 C 18.262 146.526 18.083 146.733 17.857 146.878 C 17.631 147.023 17.368 147.100 17.100 147.100 Z" stroke="rgb(0,0,255)" stroke-width="0.20" />
  <path d="M 24.100 152.700 V 149.800 H 26.900 V 155.600 H 24.100 V 152.700 Z" stroke="rgb(0,0,255)" stroke-width="0.20" />
  <path d="M 24.100 164.700 V 161.800 H 26.900 V 167.600 H 24.100 V 164.700 Z" stroke="rgb(0,0,255)" stroke-width="0.20" />
  <path d="M 24.100 176.700 V 173.800 H 26.900 V 179.600 H 24.100 V 176.700 Z" stroke="rgb(0,0,255)" stroke-width="0.20" />
  <path d="M 24.100 188.700 V 185.800 H 26.900 V 191.600 H 24.100 V 188.700 Z" stroke="rgb(0,0,255)" stroke-width="0.20" />
  <path d="M 24.100 200.700 V 197.800 H 26.900 V 203.600 H 24.100 V 200.700 Z" stroke="rgb(0,0,255)" stroke-width="0.20" />
  <path d="M 24.100 212.700 V 209.800 H 26.900 V 215.600 H 24.100 V 212.700 Z" stroke="rgb(0,0,255)" stroke-width="0.20" />
  <path d="M 24.100 224.700 V 221.800 H 26.900 V 227.600 H 24.100 V 224.700 Z" stroke="rgb(0,0,255)" stroke-width="0.20" />
</g>
<g id="p-5" style="fill:none;stroke-linecap:round;stroke-linejoin:round;">
  <path d="M 19.833 128.667 C 19.833 128.935 19.756 129.198 19.611 129.424 C 19.466 129.649 19.259 129.829 19.015 129.940 C 18.771 130.052 18.500 130.091 18.234 130.052 C 17.968 130.014 17.719 129.900 17.517 129.725 C 17.314 129.549 17.166 129.319 17.090 129.061 C 17.014 128.804 17.014 128.530 17.090 128.272 C 17.166 128.015 17.314 127.784 17.517 127.609 C 17.719 127.433 17.968 127.319 18.234 127.281 C 18.500 127.243 18.771 127.282 19.015 127.393 C 19.259 127.505 19.466 127.684 19.611 127.910 C 19.756 128.136 19.833 128.398 19.833 128.667 Z" stroke="rgb(0,0,255)" stroke-width="0.20" />
  <text transform="matrix( 1.000 0.000 0.000 1.000 57.100 88.100 )" style="font-family: sans-serif ; font-weight: normal; font-style: normal; fill: rgb(255,0,0)" font-size="4px" text-anchor="middle" dominant-baseline="hanging">Top</text><path d="M 10.100 137.100 H 104.100 C 104.155 137.100 104.200 137.055 104.200 137.000 V 43.000 C 104.200 42.945 104.155 42.900 104.100 42.900 H 10.100 C 10.045 42.900 10.000 42.945 10.000 43.000 V 137.000 C 10.000 137.055 10.045 137.100 10.100 137.100" stroke="rgb(0,0,0)" stroke-width="0.20" />
  <path d="M 95.767 127.267 C 96.035 127.267 96.298 127.344 96.524 127.489 C 96.749 127.634 96.929 127.841 97.040 128.085 C 97.152 128.329 97.191 128.600 97.152 128.866 C 97.114 129.132 97.000 129.381 96.825 129.583 C 96.649 129.786 96.419 129.934 96.161 130.010 C 95.904 130.086 95.630 130.086 95.372 130.010 C 95.115 129.934 94.884 129.786 94.709 129.583 C 94.533 129.381 94.419 129.132 94.381 128.866 C 94.343 128.600 94.382 128.329 94.493 128.085 C 94.605 127.841 94.784 127.634 95.010 127.489 C 95.236 127.344 95.498 127.267 95.767 127.267 Z" stroke="rgb(0,0,255)" stroke-width="0.20" />
  <path d="M 94.367 51.333 C 94.367 51.065 94.444 50.802 94.589 50.576 C 94.734 50.351 94.941 50.171 95.185 50.060 C 95.429 49.948 95.700 49.909 95.966 49.948 C 96.232 49.986 96.481 50.100 96.683 50.275 C 96.886 50.451 97.034 50.681 97.110 50.939 C 97.186 51.196 97.186 51.470 97.110 51.728 C 97.034 51.985 96.886 52.216 96.683 52.391 C 96.481 52.567 96.232 52.681 95.966 52.719 C 95.700 52.757 95.429 52.718 95.185 52.607 C 94.941 52.495 94.734 52.316 94.589 52.090 C 94.444 51.864 94.367 51.602 94.367 51.333 Z" stroke="rgb(0,0,255)" stroke-width="0.20" />
  <path d="M 18.433 52.733 C 18.165 52.733 17.902 52.656 17.676 52.511 C 17.451 52.366 17.271 52.159 17.160 51.915 C 17.048 51.671 17.009 51.400 17.048 51.134 C 17.086 50.868 17.200 50.619 17.375 50.417 C 17.551 50.214 17.781 50.066 18.039 49.990 C 18.296 49.914 18.570 49.914 18.828 49.990 C 19.085 50.066 19.316 50.214 19.491 50.417 C 19.667 50.619 19.781 50.868 19.819 51.134 C 19.857 51.400 19.818 51.671 19.707 51.915 C 19.595 52.159 19.416 52.366 19.190 52.511 C 18.964 52.656 18.702 52.733 18.433 52.733 Z" stroke="rgb(0,0,255)" stroke-width="0.20" />
</g>
<g id="p-6" style="fill:none;stroke-linecap:round;stroke-linejoin:round;">
  <path d="M 17.908 38.400 H 27.308 V 41.300 C 27.308 41.355 27.353 41.400 27.408 41.400 H 33.408 C 33.464 41.400 33.508 41.355 33.508 41.300 V 38.400 H 42.908 C 42.964 38.400 43.008 38.355 43.008 38.300 V 28.900 H 45.908 C 45.964 28.900 46.008 28.855 46.008 28.800 V 22.800 C 46.008 22.745 45.964 22.700 45.908 22.700 H 43.008 V 13.300 C 43.008 13.245 42.964 13.200 42.908 13.200 C 42.882 13.200 42.856 13.211 42.838 13.229 L 17.838 38.229 C 17.819 38.248 17.808 38.273 17.808 38.300 C 17.808 38.355 17.853 38.400 17.908 38.400 Z" stroke="rgb(0,0,0)" stroke-width="0.20" />
  <path d="M 34.575 29.067 C 34.748 29.067 34.916 29.116 35.062 29.210 C 35.207 29.303 35.322 29.436 35.394 29.593 C 35.465 29.750 35.490 29.924 35.466 30.095 C 35.441 30.266 35.368 30.426 35.255 30.556 C 35.142 30.686 34.994 30.782 34.829 30.830 C 34.663 30.879 34.487 30.879 34.321 30.830 C 34.156 30.782 34.008 30.686 33.895 30.556 C 33.782 30.426 33.709 30.266 33.684 30.095 C 33.660 29.924 33.685 29.750 33.756 29.593 C 33.828 29.436 33.943 29.303 34.088 29.210 C 34.234 29.116 34.402 29.067 34.575 29.067 Z" stroke="rgb(0,0,255)" stroke-width="0.20" />
  <path d="M 38.100 13.000 H 28.700 V 10.100 C 28.700 10.045 28.655 10.000 28.600 10.000 H 22.600 C 22.545 10.000 22.500 10.045 22.500 10.100 V 13.000 H 13.100 C 13.045 13.000 13.000 13.045 13.000 13.100 V 22.500 H 10.100 C 10.045 22.500 10.000 22.545 10.000 22.600 V 28.600 C 10.000 28.655 10.045 28.700 10.100 28.700 H 13.000 V 38.100 C 13.000 38.155 13.045 38.200 13.100 38.200 C 13.127 38.200 13.152 38.189 13.171 38.171 L 38.171 13.171 C 38.189 13.152 38.200 13.127 38.200 13.100 C 38.200 13.045 38.155 13.000 38.100 13.000 Z" stroke="rgb(0,0,0)" stroke-width="0.20" />
  <path d="M 21.433 22.333 C 21.261 22.333 21.092 22.284 20.947 22.190 C 20.802 22.097 20.686 21.964 20.615 21.807 C 20.543 21.650 20.518 21.476 20.542 21.305 C 20.567 21.134 20.640 20.974 20.753 20.844 C 20.866 20.714 21.014 20.618 21.180 20.570 C 21.345 20.521 21.521 20.521 21.687 20.570 C 21.852 20.618 22.001 20.714 22.114 20.844 C 22.226 20.974 22.300 21.134 22.324 21.305 C 22.349 21.476 22.324 21.650 22.252 21.807 C 22.180 21.964 22.065 22.097 21.920 22.190 C 21.775 22.284 21.606 22.333 21.433 22.333 Z" stroke="rgb(0,0,255)" stroke-width="0.20" />
  <path d="M 55.417 38.400 H 64.817 V 41.300 C 64.817 41.355 64.861 41.400 64.917 41.400 H 70.917 C 70.972 41.400 71.017 41.355 71.017 41.300 V 38.400 H 80.417 C 80.472 38.400 80.517 38.355 80.517 38.300 V 28.900 H 83.417 C 83.472 28.900 83.517 28.855 83.517 28.800 V 22.800 C 83.517 22.745 83.472 22.700 83.417 22.700 H 80.517 V 13.300 C 80.517 13.245 80.472 13.200 80.417 13.200 C 80.390 13.200 80.365 13.211 80.346 13.229 L 55.346 38.229 C 55.327 38.248 55.317 38.273 55.317 38.300 C 55.317 38.355 55.361 38.400 55.417 38.400 Z" stroke="rgb(0,0,0)" stroke-width="0.20" />
  <path d="M 72.083 29.067 C 72.256 29.067 72.425 29.116 72.570 29.210 C 72.715 29.303 72.830 29.436 72.902 29.593 C 72.974 29.750 72.999 29.924 72.974 30.095 C 72.950 30.266 72.876 30.426 72.763 30.556 C 72.651 30.686 72.502 30.782 72.337 30.830 C 72.171 30.879 71.995 30.879 71.830 30.830 C 71.664 30.782 71.516 30.686 71.403 30.556 C 71.290 30.426 71.217 30.266 71.192 30.095 C 71.168 29.924 71.193 29.750 71.265 29.593 C 71.336 29.436 71.452 29.303 71.597 29.210 C 71.742 29.116 71.911 29.067 72.083 29.067 Z" stroke="rgb(0,0,255)" stroke-width="0.20" />
  <path d="M 75.608 13.000 H 66.208 V 10.100 C 66.208 10.045 66.164 10.000 66.108 10.000 H 60.108 C 60.053 10.000 60.008 10.045 60.008 10.100 V 13.000 H 50.608 C 50.553 13.000 50.508 13.045 50.508 13.100 V 22.500 H 47.608 C 47.553 22.500 47.508 22.545 47.508 22.600 V 28.600 C 47.508 28.655 47.553 28.700 47.608 28.700 H 50.508 V 38.100 C 50.508 38.155 50.553 38.200 50.608 38.200 C 50.635 38.200 50.660 38.189 50.679 38.171 L 75.679 13.171 C 75.698 13.152 75.708 13.127 75.708 13.100 C 75.708 13.045 75.664 13.000 75.608 13.000 Z" stroke="rgb(0,0,0)" stroke-width="0.20" />
  <path d="M 58.942 22.333 C 58.769 22.333 58.600 22.284 58.455 22.190 C 58.310 22.097 58.195 21.964 58.123 21.807 C 58.051 21.650 58.026 21.476 58.051 21.305 C 58.075 21.134 58.148 20.974 58.261 20.844 C 58.374 20.714 58.523 20.618 58.688 20.570 C 58.854 20.521 59.030 20.521 59.195 20.570 C 59.361 20.618 59.509 20.714 59.622 20.844 C 59.735 20.974 59.808 21.134 59.832 21.305 C 59.857 21.476 59.832 21.650 59.760 21.807 C 59.689 21.964 59.573 22.097 59.428 22.190 C 59.283 22.284 59.114 22.333 58.942 22.333 Z" stroke="rgb(0,0,255)" stroke-width="0.20" />
</g>
</svg>